<svg id="Layer_1" data-name="Layer 1" xmlns="http://www.w3.org/2000/svg" viewBox="0 0 5000 5000"><defs><style>.cls-1{fill:#2b2b2b;stroke:#1d1d1b;}.cls-1,.cls-11,.cls-16,.cls-17,.cls-19,.cls-2,.cls-22,.cls-3,.cls-5,.cls-6,.cls-8{stroke-miterlimit:10;}.cls-2{fill:#d49e40;}.cls-11,.cls-16,.cls-17,.cls-19,.cls-2,.cls-3,.cls-5,.cls-6{stroke:#000;}.cls-19,.cls-2,.cls-3,.cls-5{stroke-width:5px;}.cls-3,.cls-9{fill:#8b6118;}.cls-4{fill:#a67828;}.cls-17,.cls-5,.cls-8{fill:none;}.cls-6{fill:#eaeaea;}.cls-11,.cls-16,.cls-17,.cls-6,.cls-8{stroke-width:8px;}.cls-7{fill:#b78737;}.cls-8{stroke:#a57929;}.cls-10{opacity:0.27;}.cls-11{fill:#3a271e;}.cls-12{fill:#28170f;}.cls-13{opacity:0.12;}.cls-14{opacity:0.29;}.cls-15{fill:#fff;}.cls-16{fill:#211714;}.cls-18{opacity:0.35;}.cls-19{fill:#e5e5e5;}.cls-20{fill:#0062ba;}.cls-21{fill:#ffd833;}.cls-22{fill:#205aa0;stroke:#205aa0;stroke-width:3px;}</style></defs><rect class="cls-1" width="5000" height="5000"/><path class="cls-2" d="M3438.32,2068.91c49-13.78,56.81-34.46,56.81-34.46s116.68,185.87,132,208.85,56.13,87,56.13,87l3.8,5.91a278.43,278.43,0,0,0,21.59,26.39h0c3.53,3.79,11.07,3.44,13.77-1l.11-.15a144.26,144.26,0,0,0,17.6-31.72l.87-2.18c8.94-26.55,19.66-79.91,27.32-103.66s26-49.53,46.47-55.91c7.43-2.32,17-10.19,23.36-16,4-3.69,6.78-6.53,6.78-6.53,19.4-13.79,74.79-62.51,74.79-62.51l43.21-44.15a236,236,0,0,0,17-19.33c9.71-12.36,19.25-24.8,27.65-39.16a99.31,99.31,0,0,0,4.85-9.4l12.77-25.07c20.94-47,18.64-70.21-.13-98.19l-.22-.44a201.14,201.14,0,0,0-24.42-37.45h0A249.78,249.78,0,0,0,3967,1773.5l-62.05-54.63c-197.1-126.13-225.67-129.43-243.57-137.87-38.64-18.21-83.11-15.06-83.11-15.06-28.8-10.38-50.42-21-72-35.44-12.23-8.19-28.48-20-37.19-27a367.51,367.51,0,0,1-28-24.83,141.57,141.57,0,0,0-10.79-9.53,234,234,0,0,1-42.1-43.92c-23.33-31.39-56.43-53.51-62.16-58.24-11.26-9.32-100.1-69-194.31-54.11s-149.36,137.88-149.36,137.88"/><path class="cls-3" d="M2779.47,3650.11S2867.81,3859,3201,3832.54c0,0,68.17-1.92,209.11-50.94,0,0,89.36,21.7,143-11,0,0,17.87-.51,24.51-6.64,0,0,89.63,71.66,162.43,57.19,18.58-3.7,38.76-8.68,61.4-35.06,18.2-21.2,14.36-36,21.56-69.54,0,0-32.41-124.46-173.37-144.74s-316.9,60.46-316.9,60.46-102,41-167.3,79c0,0-3.25,2.27-14.6,9.43s-74.57,51.05-178-21.25c0,0-30.39-23.12-73.72-31.47S2861.17,3659.3,2779.47,3650.11Z"/><path class="cls-4" d="M3470.62,1579.47s-62-26-85.79-55.92L3299,1448.74s-124.47-119-231.32-14.8L3436.15,1985s16.47-6.89,19.53-10.72c0,0-14.94-23.36-19.91-72S3452,1779,3452,1779s11-37.15,18.64-55.15c0,0,14.55-26.81,13-60.13S3470.62,1579.47,3470.62,1579.47Z"/><path class="cls-2" d="M903.89,5000s-23.74-64.87,11.49-133c0,0,26-4.6,67.41-124.85,0,0,13-29.11,37.53-144.77l38.3-186.38s85.81-423.59,178.87-490.23c0,0,3.71-2.54,14.15-6.62,14.64-5.74,46.32-17.12,63.57-23.37,0,0,35.24-12.25,41-31,0,0,16.47-37.53,44.43-69.32s49-73.91,93.06-157.4l-88.47,64.34,59-83.49-70.85,47.49,51.7-76.6-45.19,18s125.24-227.1,109.53-553.78c-1.23-25.64,0-63.81,1.53-95,2.4-47.57,6.94-96.93,17.14-146.55,14.94-72.63,38.41-156.46,71-277.79,26.26-97.92,48.26-245.87,48.26-245.87L1694,1964.84a541.7,541.7,0,0,1,16.06-76,898.58,898.58,0,0,1,225.62-383.54c53.71-54.09,111.28-90.19,182.23-118.06l89.61-30.64s19.92-10,76.6-16.85,127.15-11.49,127.15-11.49,82-10.72,141.7,6.9,113.36,32.93,208.34,78.13l22.2,12.29a63.65,63.65,0,0,0,17.24,6.12l67,13.76s75.06,20.68,160.08-1.54c0,0,93.45-31.4,191.11,32.17,14.06,9.16,27,22.55,38.78,35.46,8.67,9.5,16.69,18.74,24,25.82,42.89,41.36,56.49,102.93,59.36,119.87,0,0,29.8,52.63,44.43,151.53,8.68,58.73,31.66,111.83,33.91,120.9l21.26,75.27a115.17,115.17,0,0,1-4,68.86l-7.94,16.5a487.8,487.8,0,0,1-39.09,66.81L3378,2174.27s-1.47,4.82-13.89,13.37-16.85,30.64-16.85,30.64-13.28,44.93,16.85,55.66,409.53,178.21,486.64,223.15c0,0,134.81,66.38,216.51,172.08,0,0,137.49,145.4,50.17,325.79-31.42,64.89-93.83,82.52-93.83,158.55,0,0,16.14,113.08,15.7,244.72-.46,138.1-17.14,297.73-68.55,345.32-121.2,112.21-139.69,12.84-141.74-2.23-.32-2.33-.7-4.64-1.19-6.93-6.82-31.52-54.32-197.9-292.65-160.88,0,0-143.26,15-369.79,137.74a118,118,0,0,0-14.6,9.43c-17.1,12.84-78,46.71-180-22.57a269,269,0,0,0-38.61-20.59c-8.88-3.76-6.59-2.92-22.89-7.08-28-7.16-71.18-14.88-129.86-20.33,0,0,34.47,74.36,115,121.43a20.54,20.54,0,0,1,10.22,18.17c-.11,4.65,1,9.12-5.09,17.16,0,0,14.17,1.53,22.21,25.66s19.53,76.6,6.13,119.49-59.75,60.13-86.56,61.66L2799.26,4214s-14.94,67.4,12.63,116.81c0,0,70.85,40.21,92.3,91.15s61.66,154,67.79,196.08,62,299.79,35.23,382"/><path class="cls-5" d="M3408.06,1448.74l37.28,44.94c21.45,29.11,33.19,118.47,38.81,149.62s1,61.79-8.68,74.55-41.36,123.06-37.28,179.24,22,79.65,22,79.65l35.74,60.26"/><path class="cls-6" d="M2572.15,2000.57s20.68-53.43-35.24-94.58-123.31-46.93-123.31-46.93-65.11-9.6-98.81-4.8-107.24,16-126.39,72.48,0,95.48,0,95.48,23,54.87,109.54,81.59c0,0,20.12,6,49.07,7.63,44.37,2.47,78.14,10.3,114.84,11.86,0,0,64.8,2.53,81.19-37.54,7.29-17.81,13.72-29,18.39-42.6A255.36,255.36,0,0,0,2572.15,2000.57Z"/><path class="cls-6" d="M3016.4,2071s0,76.91,48.51,81.6c0,0,47,11.72,145.54,7s136.34-72.21,136.34-72.21,14.3-18.29,16.85-59.56-15.83-61-15.83-61-11.75-19.23-43.92-30.48-39.32-17.35-80.17-19.7-108.25.94-149.1,24.39S3005.17,1988,3016.4,2071Z"/><path class="cls-7" d="M4028.23,3191s41.71,371.67-36.45,518.61c-1.7,3.19-3.32,6.42-4.8,9.71-3.25,7.18-13,24.21-38.41,43.85,0,0-88.29,74.61-113.78,0-21-61.5-10.3-61.5-47.83-114.89,0,0-35.62-55.92-121.79-73.53s-209.11,14.93-209.11,14.93-149.36,40.22-295.27,126c0,0-31.79,21.83-57.83,23.75-48.31,3.55-86.17-11.49-101.11-22.6,0,0-67.48-44.23-92.52-46.43-9.4-.83-28.19-6-40.37-8.72-20.3-4.54-39.15-5.58-89.49-9.57,0,0-108.51-168.51-161.36-361.53,0,0-55.15-172.34-17.62-372.26,0,0,13-145.53,147.06-137.87,0,0,91,7.69,191.21,21.68,119,16.62,237.47,27.17,261.47,30.4,0,0,131.24,18.9,278.81,5.62S4028.23,3191,4028.23,3191Z"/><ellipse cx="2415.96" cy="1998.41" rx="115.74" ry="120.03"/><ellipse cx="3154.07" cy="2047.08" rx="106.05" ry="109.68"/><path class="cls-8" d="M2543,1695.89s138.64,84.26,112.6,235.15"/><path class="cls-8" d="M2704.66,1483.72s1.67,26.82-6.74,81.88S2687,1713.51,2687,1713.51"/><path class="cls-8" d="M2795,1602.45s8.43-2.3,12.26,13.78,13,85,8.42,148.6,1.54,122.55,5.37,133.28"/><path class="cls-8" d="M2941.34,1534.28s-23,74.29-11.49,169.27c0,0,3.06,42.13-13,78.13"/><path class="cls-8" d="M3070.79,1722.7S2962,1791.64,2953.6,1920.32"/><path class="cls-8" d="M1967.81,2132.49s31.29,92.86,109.41,208.43c31.52,46.63,98.44,122.61,172.46,180.68"/><path class="cls-8" d="M2026,2496.32s101.87,103.4,108,114.13,19.92,18.38,36.77,50.55S2203,2780.2,2203,2780.2"/><path class="cls-8" d="M1742.62,3089.17S1823,3273,1957.09,3355c0,0,83.07,58.25,177.19,93.54,0,0,194.29,85.69,218,102.54s106.47,69.7,307.91,42.13"/><path d="M2925.51,2954.11s-101.11,19.4-270.64,181.78l74-76.08c37.3-35.94,82.21-65.23,126.38-87.15l66.65-27.23"/><path d="M3158.87,3064.91s-23.5,1.46-61.78,6.64c-86.81,11.75-219.75,48.24-379.41,192.51,0,0,179.75-166.46,438.13-184.34Z"/><path d="M3237,2954.11s-84.26.62-154.47,30.12c-30.85,13-57.42,32.5-75.59,58.34-3,4.2-8.25,8.49-11.47,12.9-4.77,6.52-9.93,12.1-15.07,19.15-17,23.38-33,51.06-47.74,82.21,0,0,30.93-109.83,130.21-172.39,5.92-3.72,12.33-5.78,22-9.21,14.17-5,32.89-11.14,47.49-14.49A615.3,615.3,0,0,1,3237,2945.43Z"/><path d="M3349.6,3064.91s-124.09,5.88-220.6,115.41c0,0,82-88.09,220.6-101.11Z"/><path d="M3032.49,3246.19s-60.51,1.84-291.06,97c0,0,245.87-82.5,291.06-84Z"/><path d="M3465.26,3237.77c-82.28,3.64-158.4,17-218.3,40.59-91.23,35.87-147.07,85.79-147.07,85.79,41-40.12,89.31-72.91,137.11-93.45,49.92-21.45,94.05-28.77,134-35.23,52.6-8.5,94.22-12.26,94.22-12.26Z"/><polygon points="2957.43 3389.43 2769 3504.32 2952.83 3382.53 2957.43 3389.43"/><path d="M3237,3415.47s-55.15-4.6-124.09,21.44c-55.49,21-126.64,65.23-211.4,134.81,0,0,95.44-73.59,202.21-115.66,44.44-17.51,91.19-25.23,133.28-26.8Z"/><polygon points="3099.89 3571.72 2926.02 3652.91 3096.06 3564.83 3099.89 3571.72"/><path d="M3433.85,3436.91s-57.45-4.59-140.17,86.56c0,0,69.7-69.7,140.17-75.07Z"/><path d="M3025.6,3789s3.06,68.43,76.59,208.34c0,0-72.51-87.32-86.81-208.34Z"/><path d="M3152.74,3796.37s1,51.86,36.26,123.35c0,0-27.06-73.59-27.06-123.35Z"/><path d="M3230.87,3726.19s12.22,49.07,8.68,82.21c-3.21,30.13-9.29,83.23-24,142.47,0,0,49.54-137.36,22-227.23Z"/><path d="M3386.11,3740.49s9.7,21.45,12.25,96.77c0,0,12.26-35-4.08-99.32Z"/><path d="M3494.36,3730.79s16.34,61.78-4.59,132.76c0,0,24-40.34,14.29-132.76Z"/><path d="M3624.06,3742.53s1,31.15-24,64.34c0,0,34.22-29.1,31.66-66.38Z"/><polygon points="3765 3781.85 3789 3828.32 3770.62 3776.74 3765 3781.85"/><path d="M4005,3596s68.94,43.4,103.15,97c0,0-30.13-59.23-99.58-108.26Z"/><path d="M3967.72,3474.45s51.65,9.7,92.43,55.66c32.17,36.25,43.73,57.54,44.42,104.68,0,0,20.94-123.07-136.85-181.28Z"/><polygon points="4118.36 3456.57 4036.61 3423.89 4036.61 3415.21 4118.36 3456.57"/><path d="M4014.7,3372.32s37.79,7.15,113.87,129.7c0,0-16.56-31.74-38.8-66.13-19.79-30.59-43.33-63.08-75.07-79.91Z"/><path d="M4036.61,3310s24.1,8.2,58.77,41.36c26.9,25.73,59.33,67.15,97,127.15,0,0-69.95-151.22-158.8-190.25Z"/><path class="cls-9" d="M3604.43,3187s10.53,283.4-160.09,404.42c0,0,281.42-92.54,363.61,90.84,0,0-78.67-216.45,140.39-419.18Z"/><path class="cls-10" d="M3333.51,1375s82.3,123.37,87.32,163.91c2,15.73,4.35,16.33,5.11,19.66,3.15,14,3.45,15,5.61,24,4.32,17.9,5.42,40.25,9.19,98.81,0,0-1.53,25.28-16.85,57.45s-27.57,78.51-22.21,135.57c0,0,58.6,153.58,37.15,192.26,0,0,37.91-7.28,56.3-32.17,0,0-56.43-79.66-56.43-131.24,0,0-4.59-98.55,36.26-180.51,0,0,21.44-42.13,8.17-87.57,0,0-14.3-103.66-37.79-141.45S3337.6,1369.09,3333.51,1375Z"/><path class="cls-5" d="M903.89,5002s-23.74-64.87,11.49-133c0,0,26-4.6,67.41-124.86,0,0,13-29.1,37.53-144.76l38.3-186.38s85.81-423.59,178.87-490.23c0,0,3.71-2.54,14.15-6.63,14.64-5.73,46.32-17.11,63.57-23.36,0,0,35.24-12.25,41-31,0,0,16.47-37.53,44.43-69.32s49-73.91,93.06-157.4l-88.47,64.34,59-83.49-70.85,47.49,51.7-76.6-45.19,18s125.24-227.1,109.53-553.78c-1.23-25.64,0-63.82,1.53-95,2.4-47.57,6.94-96.93,17.14-146.55,14.94-72.64,38.41-156.46,71-277.79,26.26-97.92,48.26-245.88,48.26-245.88L1694,1966.83a541.4,541.4,0,0,1,16.06-76,898.58,898.58,0,0,1,225.62-383.54c53.71-54.09,111.28-90.19,182.23-118.06l89.61-30.64s19.92-10,76.6-16.85,127.15-11.49,127.15-11.49,82-10.72,141.7,6.9,113.36,32.93,208.34,78.12l22.2,12.3a63.29,63.29,0,0,0,17.24,6.11l67,13.76s75.06,20.68,160.08-1.53c0,0,93.45-31.4,191.11,32.17,14.06,9.16,27,22.55,38.78,35.46,8.67,9.5,16.69,18.74,24,25.82,42.89,41.36,56.49,102.92,59.36,119.87,0,0,29.8,52.62,44.43,151.53,8.68,58.73,31.66,111.83,33.91,120.9l21.26,75.27a115.13,115.13,0,0,1-4,68.85l-7.94,16.51a487.8,487.8,0,0,1-39.09,66.81L3378,2176.26s-1.47,4.82-13.89,13.37-16.85,30.64-16.85,30.64-13.28,44.93,16.85,55.65,409.53,178.22,486.64,223.15c0,0,134.81,66.39,216.51,172.09,0,0,137.49,145.4,50.17,325.79-31.42,64.89-93.83,82.52-93.83,158.55,0,0,16.14,113.08,15.7,244.72-.46,138.1-17.14,297.72-68.55,345.32-121.2,112.21-139.69,12.84-141.74-2.24-.32-2.32-.7-4.63-1.19-6.92-6.82-31.52-54.32-197.9-292.65-160.88,0,0-143.26,15-369.79,137.73a119.26,119.26,0,0,0-14.6,9.44c-17.1,12.84-78,46.71-180-22.58a269.49,269.49,0,0,0-38.61-20.58c-8.88-3.76-6.59-2.92-22.89-7.08-28-7.16-71.18-14.88-129.86-20.34,0,0,34.47,74.37,115,121.44a20.52,20.52,0,0,1,10.22,18.17c-.11,4.65,1,9.12-5.09,17.16,0,0,14.17,1.53,22.21,25.66s19.53,76.6,6.13,119.49-59.75,60.13-86.56,61.66L2799.26,4216s-14.94,67.4,12.63,116.81c0,0,70.85,40.21,92.3,91.14s61.66,154,67.79,196.09,62,299.79,35.23,382"/><path class="cls-11" d="M4192.67,2943.26s-93.71,229.69-293,357.09c-129.24,82.62-189.46,38.56-205.62,22.06-3.91-4-7.85-8-11.91-11.83-17.63-16.79-63.28-67.38-93-164.46,0,0-79.66-218.95-98.81-264.9a101.67,101.67,0,0,1-6.38-32.17c-.51-17.88-.51-32.17,13.79-47.49s89.87-95.49,89.87-95.49l36-32.19c21-24,64.15-39.71,108.87-42.14,53.51-2.9,228.92,13.56,228.92,13.56s95,4.6,141.7,73.53,72,121,77.36,132.52S4209.52,2917.22,4192.67,2943.26Z"/><path class="cls-12" d="M3512.06,2833.5s-26.42-1.15-24.7,17.62a91,91,0,0,0,7.66,32.93c7.47,16.28,39.45,108.39,39.45,108.39l56.1,149.36s27.58,83.87,57.83,125.61c1,1.41,1.66,2.76,3,4.7,2.29,3.37,5.72,7.84,9.55,12.79,18.07,23.41,47.9,59.21,95.29,64.09,0,0,42.32-1.15,70.85-14.17s60.32-26.62,114.71-67.6,87.7-82.91,87.7-82.91l49-60.9,67.79-86.93s8.61-15.13,11.1-23,32.75-72.58,34.47-75.26,4.79-14.93,2.3-29.29-21.45-17-21.45-17S3774.79,2786.27,3512.06,2833.5Z"/><path class="cls-2" d="M1703.07,2323s-216-139-351.57-309.06c-28.23-35.4-36.16-73.53-36.16-97.78,0-64.22,94.53-136.35,168.28-180.26l-1.14-82.73s-295.28-201.06-380.3-368.81c0,0-16.09-34.34-20.68-58.85s-27.58-70-33.71-229.78c0,0,5.11-137.88,120-71,0,0,38.3,23,70,34.21s118.63,48.79,223.15,76.6c103.66,27.57,350.3,72,445.79,33.7,0,0,32-12.35,52.76-2.42,2.74,1.31,5.5,2.57,8.34,3.63a235,235,0,0,1,54.81,29.43s55.15,70.46,86.81,98c14.2,12.37,45.58,47.94,71.49,88.85,31.86,50.29,59.75,120.77,47.49,134.3"/><path class="cls-13" d="M1696.4,2964s110.81,193.38,204.77,282.23S2114.49,3356,2114.49,3356s185,31.77,310.6,124.19c74.71,55,183.78,120.12,264.25,158.7,54.83,26.29,122.56,62.84,122.56,62.84s-27-45.86-62.56-76c-112.74-95.69-361.23-272.81-518-305.19-121.64-25.12-224.4-67.85-304.38-121.3C1808.74,3120.19,1696.4,2964,1696.4,2964Z"/><path class="cls-4" d="M1797.77,1932.57l-137.11,248.94s-160.09-137.87-196.09-235.15c0,0-12.76-22.21,1.54-53.62s53.87-71,110.55-112.34l-1.4-186s-272-166.59-351.2-306c0,0-19.4-8.68,103.15,37.79l8.17,1.53s91.92,5.62,168-12.25,100.6-31.66,100.6-31.66,100.59-45.45,214.47-143.49c0,0,39.65-7.59,93.65,23.61a108.73,108.73,0,0,1,28.18,23.43c15.3,17.91,41.3,51.63,49,82.09,0,0,14.93,77.17,93.44,146.1,0,0-91.53,200.3-121.4,232.09,0,0-6.13,14.17-26.81,6.51s-34.85-6.89-34.85-6.89-17.24-3.07-31.79,15.7-25.66,49-25.66,49-18.38,61.28-26.81,73.91-6.89,27.45-6.89,27.45,2.3,22.21,4.85,30.38,11,46.22,2.3,56.68Z"/><path class="cls-14" d="M1599.38,3720.06s16.85,71-7.66,116.43c0,0,23.11-33.32,24.58-49.85L1631,3766l-31.6,111.37L1650.27,3776l4.77,59,21-69.95v55.14l18.13-56s11,53.92-14.57,104c0,0,44-80.73,40.19-103.54l-32.53-4.21-27.06,8.17-17.87.52-21.45-12.26Z"/><path class="cls-2" d="M1163.46,919.88s-91.41-54.13-108.77,55.15c-4.9,30.85-6.6,56.65,3.57,102.63,27.58,124.6,86.81,162.39,169,208.86,0,0,84.25,38.29,111.83,43.4s191.48-1.53,281.87-49,128.68-79.66,145-91.41,137.87-111.31,149.11-119.48c0,0-27.67,9.24-77.62,13.78-42.13,3.83-160.85-8.42-186.13-12.25,0,0-112.77-13-179.23-35.24,0,0-139.41-36.76-166.22-52.85l-65.36-25.79L1224,951.21a246.82,246.82,0,0,1-49.35-24Z"/><path class="cls-10" d="M1056,1085.57s8.34,172.57,119,275.15c37.43,34.7,110.18,62,151,70.68,0,0,357.32,46,529.66-275.74,0,0,52.85-85,64.34-90.77,0,0-14.72,6.56-105.87,82.39,0,0-126.22,102.59-179.83,121.74,0,0-94.47,64.47-296.94,57.7,0,0-211.45-50.51-261-188.21C1054.17,1077,1058.74,1107.11,1056,1085.57Z"/><path class="cls-8" d="M1674.45,2932.15s114.89,181.53,293.36,294.89c0,0,79.66,48.26,231.32,85s248.93,101.11,248.93,101.11,145.28,72.71,331.41,238.92"/><path class="cls-2" d="M1601.94,3717s7.15,60.77-2.56,93.45l33.19-46.73L1603,3846.19l49.53-73.53v41.87l28.6-60.25-6.64,44.93,25.53-45.44s-.51,40.34-25.53,86.29c0,0,31.66-30.63,46.46-79.15"/><polygon class="cls-14" points="1785.39 3364.19 1750.02 3502.53 1779.7 3464.59 1763.81 3557.68 1793.37 3507.2 1797 3551.04 1861.27 3441.58 1850.62 3504.06 1871.55 3464.74 1848.1 3437.99 1808.74 3486.19 1779.13 3429.51 1785.39 3364.19"/><polyline class="cls-2" points="1871.55 3464.74 1846.53 3487.21 1862.35 3438.2 1791.89 3527.55 1794.45 3492.32 1756.66 3532.15 1786.79 3443.81 1745.94 3480.57 1786.79 3360.06"/><polygon class="cls-14" points="2124.06 3555.64 2117.94 3738.7 2164.66 3600.99 2164.66 3652.09 2208.32 3587.81 2186.87 3711.13 2247.38 3608.87 2234.36 3686.62 2278.79 3621.51 2254.15 3751.72 2304.83 3616.91 2271.13 3608.87 2254.15 3600.99 2186.87 3581.68 2147.81 3600.99 2124.06 3555.64"/><polyline class="cls-2" points="2304.83 3616.91 2247.38 3711.13 2274.75 3590.86 2233.6 3657.51 2237.43 3600.99 2176.91 3677.43 2200.31 3571.72 2162.11 3631.09 2171.55 3581.68 2105.68 3705 2121 3551.04"/><path class="cls-14" d="M2502.19,3966.19l-10.72,91.92,38.3-68.94L2518,4058.11l41.87-70s-46.46,102.64-65.36,124.08c0,0,60.26-36.25,88.34-101.61l-10.21,52.08,35.23-48.51s.51,51.58-14.8,87.32L2637.51,3982l-23.49-2-68.93-8.17-30.64-3.58Z"/><path class="cls-2" d="M2500,3962.62l-11.6,72.51,46.47-79.66-19.4,76.08s26-49,44.42-60.76c0,0,7.66,25.53-65.36,108.76,0,0,38.18-14.81,92.88-103.15l-13.22,60.26,32.68-57.7s5.11,24.51-21.44,100.59l56.68-97"/><circle class="cls-15" cx="2377.89" cy="1937.4" r="29.78"/><circle class="cls-15" cx="3121.02" cy="1993.41" r="27.51"/><path class="cls-16" d="M4083.38,3078.45s35.16-68.38-26.81-85c-51.31-13.79-109.25,18.1-134,65.87-31.4,60.51-20.55,163.91,38.3,153.19,0,0,42.13-5.36,57.45-13.79"/><path class="cls-16" d="M3646.79,3129s60.51,57.45,116.42,16.09,65.11-131,65.11-131,6.89-40.6-35.23-81.2-83.49-4.59-83.49-4.59-35,27.62-44.43,83.49c-8.43,49.79-59.74,21.45-59.74,21.45"/><path class="cls-17" d="M4192.67,2943.26s-93.71,229.69-293,357.09c-129.24,82.62-189.46,38.56-205.62,22.06-3.91-4-7.85-8-11.91-11.83-17.63-16.79-63.28-67.38-93-164.46,0,0-79.66-218.95-98.81-264.9a101.67,101.67,0,0,1-6.38-32.17c-.51-17.88-.51-32.17,13.79-47.49s89.87-95.49,89.87-95.49l36-32.19c21-24,64.15-39.71,108.87-42.14,53.51-2.9,228.92,13.56,228.92,13.56s95,4.6,141.7,73.53,72,121,77.36,132.52S4209.52,2917.22,4192.67,2943.26Z"/><path class="cls-18" d="M1701.73,2325.13l-36.47-7.15c-22.69-5-22.22-18.38-22.22-18.38l4.22-12.29,9.76,7a172.6,172.6,0,0,0,20.39,13.4Z"/><path class="cls-4" d="M1481,5000l127.6-235.68s26-62.81,30.64,0-53,235.68-53,235.68"/><path class="cls-4" d="M2604.45,5000s1.33-16.11-9.36-82.23-10.69-97.54-10.69-97.54,29.88-13.78,42.9,5.37c0,0,9.19-6.37,21.44,174.4"/><path class="cls-19" d="M793.62,4998.87l297.19-1080.28s34.32-32.78,183.94-14.36c43.06,5.3,495,485.45,1553.61,437.92,0,0,106.87,24.27,146.7,58l71.24,600.73"/><path class="cls-5" d="M1090.81,3918.59s208.34,124.35,205.28,280.6c0,0,6.48,8.72-153.2,801.66"/><path class="cls-5" d="M2975.06,4400.12s-127.89,12.26-186.11,122.55c0,0-65.94,86.87-32.44,476.2"/><path class="cls-19" d="M1288.62,3896.92a146.58,146.58,0,0,0,22.75-17.3c10-9.25,24.19-23,33.72-34.51,9.7-11.75,20.93,1.53,20.93,1.53S1819,4250,2791.21,4262.3c0,0,13.8-2.68,13.41,5,0,0,1.24,31.09,14.93,58,3.77,7.4,10.64,16.12,10.64,16.12s-898.16,89-1553-437.4C1277.19,3904,1282.5,3900.69,1288.62,3896.92Z"/><rect x="1692.34" y="4520.27" width="647.62" height="217.95" transform="translate(870.15 -288.22) rotate(10.42)"/><polygon points="2314.93 4794.97 1677.97 4677.89 1638.57 4892.24 2223.99 4999.86 2277.24 5000 2314.93 4794.97"/><rect class="cls-20" x="1695.6" y="4524.91" width="640" height="213.25" transform="translate(870.56 -288.08) rotate(10.42)"/><polygon class="cls-21" points="2311.05 4794.26 1681.6 4678.55 1643.04 4888.29 2249.18 4999.71 2273.23 4999.99 2311.05 4794.26"/><path class="cls-22" d="M2472,2131.49s-32.52,74.5,0,74C2502.89,2205.09,2472,2131.49,2472,2131.49Z"/></svg>