<svg id="Layer_1" data-name="Layer 1" xmlns="http://www.w3.org/2000/svg" viewBox="0 0 5000 5000"><defs><style>.cls-1{fill:#8c8383;}.cls-2{fill:#d49e40;}.cls-11,.cls-16,.cls-17,.cls-2,.cls-22,.cls-26,.cls-3,.cls-5,.cls-6{stroke:#000;}.cls-11,.cls-16,.cls-17,.cls-2,.cls-22,.cls-23,.cls-25,.cls-26,.cls-27,.cls-3,.cls-5,.cls-6,.cls-8{stroke-miterlimit:10;}.cls-2,.cls-3,.cls-5{stroke-width:5px;}.cls-3,.cls-9{fill:#8b6118;}.cls-4{fill:#a67828;}.cls-17,.cls-5,.cls-8{fill:none;}.cls-6{fill:#eaeaea;}.cls-11,.cls-16,.cls-17,.cls-23,.cls-6,.cls-8{stroke-width:8px;}.cls-7{fill:#b78737;}.cls-8{stroke:#a57929;}.cls-10{opacity:0.27;}.cls-11{fill:#3a271e;}.cls-12{fill:#28170f;}.cls-13{opacity:0.12;}.cls-14{opacity:0.29;}.cls-15,.cls-25,.cls-26{fill:#fff;}.cls-16{fill:#211714;}.cls-18{opacity:0.35;}.cls-19{fill:#ad7474;}.cls-20{fill:#c18181;}.cls-21,.cls-22{opacity:0.17;}.cls-23,.cls-27{fill:#2d2d2d;stroke:#2d2d2d;}.cls-24{opacity:0.07;}.cls-25{stroke:#1d1d1b;}.cls-25,.cls-26{stroke-width:0.5px;}</style></defs><rect class="cls-1" width="5000" height="5000"/><path class="cls-2" d="M3438.32,2068.91c49-13.78,56.81-34.46,56.81-34.46s116.68,185.87,132,208.85,56.13,87,56.13,87l3.8,5.91a278.43,278.43,0,0,0,21.59,26.39h0c3.53,3.79,11.07,3.44,13.77-1l.11-.15a144.26,144.26,0,0,0,17.6-31.72l.87-2.18c8.94-26.55,19.66-79.91,27.32-103.66s26-49.53,46.47-55.91c7.43-2.32,17-10.19,23.36-16,4-3.69,6.78-6.53,6.78-6.53,19.4-13.79,74.79-62.51,74.79-62.51l43.21-44.15a236,236,0,0,0,17-19.33c9.71-12.36,19.25-24.8,27.65-39.16a99.31,99.31,0,0,0,4.85-9.4l12.77-25.07c20.94-47,18.64-70.21-.13-98.19l-.22-.44a201.14,201.14,0,0,0-24.42-37.45h0A249.78,249.78,0,0,0,3967,1773.5l-62.05-54.63c-197.1-126.13-225.67-129.43-243.57-137.87-38.64-18.21-83.11-15.06-83.11-15.06-28.8-10.38-50.42-21-72-35.44-12.23-8.19-28.48-20-37.19-27a367.51,367.51,0,0,1-28-24.83,141.57,141.57,0,0,0-10.79-9.53,234,234,0,0,1-42.1-43.92c-23.33-31.39-56.43-53.51-62.16-58.24-11.26-9.32-100.1-69-194.31-54.11s-149.36,137.88-149.36,137.88"/><path class="cls-3" d="M2779.47,3650.11S2867.81,3859,3201,3832.54c0,0,68.17-1.92,209.11-50.94,0,0,89.36,21.7,143-11,0,0,17.87-.51,24.51-6.64,0,0,89.63,71.66,162.43,57.19,18.58-3.7,38.76-8.68,61.4-35.06,18.2-21.2,14.36-36,21.56-69.54,0,0-32.41-124.46-173.37-144.74s-316.9,60.46-316.9,60.46-102,41-167.3,79c0,0-3.25,2.27-14.6,9.43s-74.57,51.05-178-21.25c0,0-30.39-23.12-73.72-31.47S2861.17,3659.3,2779.47,3650.11Z"/><path class="cls-4" d="M3470.62,1579.47s-62-26-85.79-55.92L3299,1448.74s-124.47-119-231.32-14.8L3436.15,1985s16.47-6.89,19.53-10.72c0,0-14.94-23.36-19.91-72S3452,1779,3452,1779s11-37.15,18.64-55.15c0,0,14.55-26.81,13-60.13S3470.62,1579.47,3470.62,1579.47Z"/><path class="cls-2" d="M903.89,5000s-23.74-64.87,11.49-133c0,0,26-4.6,67.41-124.85,0,0,13-29.11,37.53-144.77l38.3-186.38s85.81-423.59,178.87-490.23c0,0,3.71-2.54,14.15-6.62,14.64-5.74,46.32-17.12,63.57-23.37,0,0,35.24-12.25,41-31,0,0,16.47-37.53,44.43-69.32s49-73.91,93.06-157.4l-88.47,64.34,59-83.49-70.85,47.49,51.7-76.6-45.19,18s125.24-227.1,109.53-553.78c-1.23-25.64,0-63.81,1.53-95,2.4-47.57,6.94-96.93,17.14-146.55,14.94-72.63,38.41-156.46,71-277.79,26.26-97.92,48.26-245.87,48.26-245.87L1694,1964.84a541.7,541.7,0,0,1,16.06-76,898.58,898.58,0,0,1,225.62-383.54c53.71-54.09,111.28-90.19,182.23-118.06l89.61-30.64s19.92-10,76.6-16.85,127.15-11.49,127.15-11.49,82-10.72,141.7,6.9,113.36,32.93,208.34,78.13l22.2,12.29a63.65,63.65,0,0,0,17.24,6.12l67,13.76s75.06,20.68,160.08-1.54c0,0,93.45-31.4,191.11,32.17,14.06,9.16,27,22.55,38.78,35.46,8.67,9.5,16.69,18.74,24,25.82,42.89,41.36,56.49,102.93,59.36,119.87,0,0,29.8,52.63,44.43,151.53,8.68,58.73,31.66,111.83,33.91,120.9l21.26,75.27a115.17,115.17,0,0,1-4,68.86l-7.94,16.5a487.8,487.8,0,0,1-39.09,66.81L3378,2174.27s-1.47,4.82-13.89,13.37-16.85,30.64-16.85,30.64-13.28,44.93,16.85,55.66,409.53,178.21,486.64,223.15c0,0,134.81,66.38,216.51,172.08,0,0,137.49,145.4,50.17,325.79-31.42,64.89-93.83,82.52-93.83,158.55,0,0,16.14,113.08,15.7,244.72-.46,138.1-17.14,297.73-68.55,345.32-121.2,112.21-139.69,12.84-141.74-2.23-.32-2.33-.7-4.64-1.19-6.93-6.82-31.52-54.32-197.9-292.65-160.88,0,0-143.26,15-369.79,137.74a118,118,0,0,0-14.6,9.43c-17.1,12.84-78,46.71-180-22.57a269,269,0,0,0-38.61-20.59c-8.88-3.76-6.59-2.92-22.89-7.08-28-7.16-71.18-14.88-129.86-20.33,0,0,34.47,74.36,115,121.43a20.54,20.54,0,0,1,10.22,18.17c-.11,4.65,1,9.12-5.09,17.16,0,0,14.17,1.53,22.21,25.66s19.53,76.6,6.13,119.49-59.75,60.13-86.56,61.66L2799.26,4214s-14.94,67.4,12.63,116.81c0,0,70.85,40.21,92.3,91.15s61.66,154,67.79,196.08,62,299.79,35.23,382"/><path class="cls-5" d="M3408.06,1448.74l37.28,44.94c21.45,29.11,33.19,118.47,38.81,149.62s1,61.79-8.68,74.55-41.36,123.06-37.28,179.24,22,79.65,22,79.65l35.74,60.26"/><path class="cls-6" d="M2572.15,1993.09s20.68-56.69-35.24-100.35S2413.6,1843,2413.6,1843s-65.11-10.19-98.81-5.1-107.24,17-126.39,76.9,0,101.3,0,101.3,23,58.22,109.54,86.56c0,0,20.12,6.38,49.07,8.09,44.37,2.63,78.14,10.94,114.84,12.59,0,0,64.8,2.68,81.19-39.83,7.29-18.89,13.72-30.78,18.39-45.19A284.69,284.69,0,0,0,2572.15,1993.09Z"/><path class="cls-6" d="M3016.4,2063s0,83.75,48.51,88.85c0,0,47,12.77,145.54,7.66s136.34-78.64,136.34-78.64,14.3-19.91,16.85-64.85-15.83-66.38-15.83-66.38-11.75-20.94-43.92-33.19-39.32-18.89-80.17-21.45-108.25,1-149.1,26.56S3005.17,1972.66,3016.4,2063Z"/><path class="cls-7" d="M4028.23,3191s41.71,371.67-36.45,518.61c-1.7,3.19-3.32,6.42-4.8,9.71-3.25,7.18-13,24.21-38.41,43.85,0,0-88.29,74.61-113.78,0-21-61.5-10.3-61.5-47.83-114.89,0,0-35.62-55.92-121.79-73.53s-209.11,14.93-209.11,14.93-149.36,40.22-295.27,126c0,0-31.79,21.83-57.83,23.75-48.31,3.55-86.17-11.49-101.11-22.6,0,0-67.48-44.23-92.52-46.43-9.4-.83-28.19-6-40.37-8.72-20.3-4.54-39.15-5.58-89.49-9.57,0,0-108.51-168.51-161.36-361.53,0,0-55.15-172.34-17.62-372.26,0,0,13-145.53,147.06-137.87,0,0,91,7.69,191.21,21.68,119,16.62,237.47,27.17,261.47,30.4,0,0,131.24,18.9,278.81,5.62S4028.23,3191,4028.23,3191Z"/><ellipse cx="2415.96" cy="1998.41" rx="115.74" ry="120.03"/><ellipse cx="3154.07" cy="2047.08" rx="106.05" ry="109.68"/><path class="cls-8" d="M2543,1695.89s138.64,84.26,112.6,235.15"/><path class="cls-8" d="M2704.66,1483.72s1.67,26.82-6.74,81.88S2687,1713.51,2687,1713.51"/><path class="cls-8" d="M2795,1602.45s8.43-2.3,12.26,13.78,13,85,8.42,148.6,1.54,122.55,5.37,133.28"/><path class="cls-8" d="M2941.34,1534.28s-23,74.29-11.49,169.27c0,0,3.06,42.13-13,78.13"/><path class="cls-8" d="M3070.79,1722.7S2962,1791.64,2953.6,1920.32"/><path class="cls-8" d="M1967.81,2132.49s31.29,92.86,109.41,208.43c31.52,46.63,98.44,122.61,172.46,180.68"/><path class="cls-8" d="M2026,2496.32s101.87,103.4,108,114.13,19.92,18.38,36.77,50.55S2203,2780.2,2203,2780.2"/><path class="cls-8" d="M1742.62,3089.17S1823,3273,1957.09,3355c0,0,83.07,58.25,177.19,93.54,0,0,194.29,85.69,218,102.54s106.47,69.7,307.91,42.13"/><path d="M2925.51,2954.11s-101.11,19.4-270.64,181.78l74-76.08c37.3-35.94,82.21-65.23,126.38-87.15l66.65-27.23"/><path d="M3158.87,3064.91s-23.5,1.46-61.78,6.64c-86.81,11.75-219.75,48.24-379.41,192.51,0,0,179.75-166.46,438.13-184.34Z"/><path d="M3237,2954.11s-84.26.62-154.47,30.12c-30.85,13-57.42,32.5-75.59,58.34-3,4.2-8.25,8.49-11.47,12.9-4.77,6.52-9.93,12.1-15.07,19.15-17,23.38-33,51.06-47.74,82.21,0,0,30.93-109.83,130.21-172.39,5.92-3.72,12.33-5.78,22-9.21,14.17-5,32.89-11.14,47.49-14.49A615.3,615.3,0,0,1,3237,2945.43Z"/><path d="M3349.6,3064.91s-124.09,5.88-220.6,115.41c0,0,82-88.09,220.6-101.11Z"/><path d="M3032.49,3246.19s-60.51,1.84-291.06,97c0,0,245.87-82.5,291.06-84Z"/><path d="M3465.26,3237.77c-82.28,3.64-158.4,17-218.3,40.59-91.23,35.87-147.07,85.79-147.07,85.79,41-40.12,89.31-72.91,137.11-93.45,49.92-21.45,94.05-28.77,134-35.23,52.6-8.5,94.22-12.26,94.22-12.26Z"/><polygon points="2957.43 3389.43 2769 3504.32 2952.83 3382.53 2957.43 3389.43"/><path d="M3237,3415.47s-55.15-4.6-124.09,21.44c-55.49,21-126.64,65.23-211.4,134.81,0,0,95.44-73.59,202.21-115.66,44.44-17.51,91.19-25.23,133.28-26.8Z"/><polygon points="3099.89 3571.72 2926.02 3652.91 3096.06 3564.83 3099.89 3571.72"/><path d="M3433.85,3436.91s-57.45-4.59-140.17,86.56c0,0,69.7-69.7,140.17-75.07Z"/><path d="M3025.6,3789s3.06,68.43,76.59,208.34c0,0-72.51-87.32-86.81-208.34Z"/><path d="M3152.74,3796.37s1,51.86,36.26,123.35c0,0-27.06-73.59-27.06-123.35Z"/><path d="M3230.87,3726.19s12.22,49.07,8.68,82.21c-3.21,30.13-9.29,83.23-24,142.47,0,0,49.54-137.36,22-227.23Z"/><path d="M3386.11,3740.49s9.7,21.45,12.25,96.77c0,0,12.26-35-4.08-99.32Z"/><path d="M3494.36,3730.79s16.34,61.78-4.59,132.76c0,0,24-40.34,14.29-132.76Z"/><path d="M3624.06,3742.53s1,31.15-24,64.34c0,0,34.22-29.1,31.66-66.38Z"/><polygon points="3765 3781.85 3789 3828.32 3770.62 3776.74 3765 3781.85"/><path d="M4005,3596s68.94,43.4,103.15,97c0,0-30.13-59.23-99.58-108.26Z"/><path d="M3967.72,3474.45s51.65,9.7,92.43,55.66c32.17,36.25,43.73,57.54,44.42,104.68,0,0,20.94-123.07-136.85-181.28Z"/><polygon points="4118.36 3456.57 4036.61 3423.89 4036.61 3415.21 4118.36 3456.57"/><path d="M4014.7,3372.32s37.79,7.15,113.87,129.7c0,0-16.56-31.74-38.8-66.13-19.79-30.59-43.33-63.08-75.07-79.91Z"/><path d="M4036.61,3310s24.1,8.2,58.77,41.36c26.9,25.73,59.33,67.15,97,127.15,0,0-69.95-151.22-158.8-190.25Z"/><path class="cls-9" d="M3604.43,3187s10.53,283.4-160.09,404.42c0,0,281.42-92.54,363.61,90.84,0,0-78.67-216.45,140.39-419.18Z"/><path class="cls-10" d="M3333.51,1375s82.3,123.37,87.32,163.91c2,15.73,4.35,16.33,5.11,19.66,3.15,14,3.45,15,5.61,24,4.32,17.9,5.42,40.25,9.19,98.81,0,0-1.53,25.28-16.85,57.45s-27.57,78.51-22.21,135.57c0,0,58.6,153.58,37.15,192.26,0,0,37.91-7.28,56.3-32.17,0,0-56.43-79.66-56.43-131.24,0,0-4.59-98.55,36.26-180.51,0,0,21.44-42.13,8.17-87.57,0,0-14.3-103.66-37.79-141.45S3337.6,1369.09,3333.51,1375Z"/><path class="cls-5" d="M903.89,5002s-23.74-64.87,11.49-133c0,0,26-4.6,67.41-124.86,0,0,13-29.1,37.53-144.76l38.3-186.38s85.81-423.59,178.87-490.23c0,0,3.71-2.54,14.15-6.63,14.64-5.73,46.32-17.11,63.57-23.36,0,0,35.24-12.25,41-31,0,0,16.47-37.53,44.43-69.32s49-73.91,93.06-157.4l-88.47,64.34,59-83.49-70.85,47.49,51.7-76.6-45.19,18s125.24-227.1,109.53-553.78c-1.23-25.64,0-63.82,1.53-95,2.4-47.57,6.94-96.93,17.14-146.55,14.94-72.64,38.41-156.46,71-277.79,26.26-97.92,48.26-245.88,48.26-245.88L1694,1966.83a541.4,541.4,0,0,1,16.06-76,898.58,898.58,0,0,1,225.62-383.54c53.71-54.09,111.28-90.19,182.23-118.06l89.61-30.64s19.92-10,76.6-16.85,127.15-11.49,127.15-11.49,82-10.72,141.7,6.9,113.36,32.93,208.34,78.12l22.2,12.3a63.29,63.29,0,0,0,17.24,6.11l67,13.76s75.06,20.68,160.08-1.53c0,0,93.45-31.4,191.11,32.17,14.06,9.16,27,22.55,38.78,35.46,8.67,9.5,16.69,18.74,24,25.82,42.89,41.36,56.49,102.92,59.36,119.87,0,0,29.8,52.62,44.43,151.53,8.68,58.73,31.66,111.83,33.91,120.9l21.26,75.27a115.13,115.13,0,0,1-4,68.85l-7.94,16.51a487.8,487.8,0,0,1-39.09,66.81L3378,2176.26s-1.47,4.82-13.89,13.37-16.85,30.64-16.85,30.64-13.28,44.93,16.85,55.65,409.53,178.22,486.64,223.15c0,0,134.81,66.39,216.51,172.09,0,0,137.49,145.4,50.17,325.79-31.42,64.89-93.83,82.52-93.83,158.55,0,0,16.14,113.08,15.7,244.72-.46,138.1-17.14,297.72-68.55,345.32-121.2,112.21-139.69,12.84-141.74-2.24-.32-2.32-.7-4.63-1.19-6.92-6.82-31.52-54.32-197.9-292.65-160.88,0,0-143.26,15-369.79,137.73a119.26,119.26,0,0,0-14.6,9.44c-17.1,12.84-78,46.71-180-22.58a269.49,269.49,0,0,0-38.61-20.58c-8.88-3.76-6.59-2.92-22.89-7.08-28-7.16-71.18-14.88-129.86-20.34,0,0,34.47,74.37,115,121.44a20.52,20.52,0,0,1,10.22,18.17c-.11,4.65,1,9.12-5.09,17.16,0,0,14.17,1.53,22.21,25.66s19.53,76.6,6.13,119.49-59.75,60.13-86.56,61.66L2799.26,4216s-14.94,67.4,12.63,116.81c0,0,70.85,40.21,92.3,91.14s61.66,154,67.79,196.09,62,299.79,35.23,382"/><path class="cls-11" d="M4192.67,2943.26s-93.71,229.69-293,357.09c-129.24,82.62-189.46,38.56-205.62,22.06-3.91-4-7.85-8-11.91-11.83-17.63-16.79-63.28-67.38-93-164.46,0,0-79.66-218.95-98.81-264.9a101.67,101.67,0,0,1-6.38-32.17c-.51-17.88-.51-32.17,13.79-47.49s89.87-95.49,89.87-95.49l36-32.19c21-24,64.15-39.71,108.87-42.14,53.51-2.9,228.92,13.56,228.92,13.56s95,4.6,141.7,73.53,72,121,77.36,132.52S4209.52,2917.22,4192.67,2943.26Z"/><path class="cls-12" d="M3512.06,2833.5s-26.42-1.15-24.7,17.62a91,91,0,0,0,7.66,32.93c7.47,16.28,39.45,108.39,39.45,108.39l56.1,149.36s27.58,83.87,57.83,125.61c1,1.41,1.66,2.76,3,4.7,2.29,3.37,5.72,7.84,9.55,12.79,18.07,23.41,47.9,59.21,95.29,64.09,0,0,42.32-1.15,70.85-14.17s60.32-26.62,114.71-67.6,87.7-82.91,87.7-82.91l49-60.9,67.79-86.93s8.61-15.13,11.1-23,32.75-72.58,34.47-75.26,4.79-14.93,2.3-29.29-21.45-17-21.45-17S3774.79,2786.27,3512.06,2833.5Z"/><path class="cls-13" d="M1696.4,2964s110.81,193.38,204.77,282.23S2114.49,3356,2114.49,3356s185,31.77,310.6,124.19c74.71,55,183.78,120.12,264.25,158.7,54.83,26.29,122.56,62.84,122.56,62.84s-27-45.86-62.56-76c-112.74-95.69-361.23-272.81-518-305.19-121.64-25.12-224.4-67.85-304.38-121.3C1808.74,3120.19,1696.4,2964,1696.4,2964Z"/><path class="cls-14" d="M1599.38,3720.06s16.85,71-7.66,116.43c0,0,23.11-33.32,24.58-49.85L1631,3766l-31.6,111.37L1650.27,3776l4.77,59,21-69.95v55.14l18.13-56s11,53.92-14.57,104c0,0,44-80.73,40.19-103.54l-32.53-4.21-27.06,8.17-17.87.52-21.45-12.26Z"/><path class="cls-8" d="M1674.45,2932.15s114.89,181.53,293.36,294.89c0,0,79.66,48.26,231.32,85s248.93,101.11,248.93,101.11,145.28,72.71,331.41,238.92"/><path class="cls-2" d="M1601.94,3717s7.15,60.77-2.56,93.45l33.19-46.73L1603,3846.19l49.53-73.53v41.87l28.6-60.25-6.64,44.93,25.53-45.44s-.51,40.34-25.53,86.29c0,0,31.66-30.63,46.46-79.15"/><polygon class="cls-14" points="1785.39 3364.19 1750.02 3502.53 1779.7 3464.59 1763.81 3557.68 1793.37 3507.2 1797 3551.04 1861.27 3441.58 1850.62 3504.06 1871.55 3464.74 1848.1 3437.99 1808.74 3486.19 1779.13 3429.51 1785.39 3364.19"/><polyline class="cls-2" points="1871.55 3464.74 1846.53 3487.21 1862.35 3438.2 1791.89 3527.55 1794.45 3492.32 1756.66 3532.15 1786.79 3443.81 1745.94 3480.57 1786.79 3360.06"/><polygon class="cls-14" points="2124.06 3555.64 2117.94 3738.7 2164.66 3600.99 2164.66 3652.09 2208.32 3587.81 2186.87 3711.13 2247.38 3608.87 2234.36 3686.62 2278.79 3621.51 2254.15 3751.72 2304.83 3616.91 2271.13 3608.87 2254.15 3600.99 2186.87 3581.68 2147.81 3600.99 2124.06 3555.64"/><polyline class="cls-2" points="2304.83 3616.91 2247.38 3711.13 2274.75 3590.86 2233.6 3657.51 2237.43 3600.99 2176.91 3677.43 2200.31 3571.72 2162.11 3631.09 2171.55 3581.68 2105.68 3705 2121 3551.04"/><path class="cls-14" d="M2502.19,3966.19l-10.72,91.92,38.3-68.94L2518,4058.11l41.87-70s-46.46,102.64-65.36,124.08c0,0,60.26-36.25,88.34-101.61l-10.21,52.08,35.23-48.51s.51,51.58-14.8,87.32L2637.51,3982l-23.49-2-68.93-8.17-30.64-3.58Z"/><path class="cls-2" d="M2500,3962.62l-11.6,72.51,46.47-79.66-19.4,76.08s26-49,44.42-60.76c0,0,7.66,25.53-65.36,108.76,0,0,38.18-14.81,92.88-103.15l-13.22,60.26,32.68-57.7s5.11,24.51-21.44,100.59l56.68-97"/><circle class="cls-15" cx="2377.89" cy="1937.4" r="29.78"/><circle class="cls-15" cx="3121.02" cy="1993.41" r="27.51"/><path class="cls-16" d="M4083.38,3078.45s35.16-68.38-26.81-85c-51.31-13.79-109.25,18.1-134,65.87-31.4,60.51-20.55,163.91,38.3,153.19,0,0,42.13-5.36,57.45-13.79"/><path class="cls-16" d="M3646.79,3129s60.51,57.45,116.42,16.09,65.11-131,65.11-131,6.89-40.6-35.23-81.2-83.49-4.59-83.49-4.59-35,27.62-44.43,83.49c-8.43,49.79-59.74,21.45-59.74,21.45"/><path class="cls-17" d="M4192.67,2943.26s-93.71,229.69-293,357.09c-129.24,82.62-189.46,38.56-205.62,22.06-3.91-4-7.85-8-11.91-11.83-17.63-16.79-63.28-67.38-93-164.46,0,0-79.66-218.95-98.81-264.9a101.67,101.67,0,0,1-6.38-32.17c-.51-17.88-.51-32.17,13.79-47.49s89.87-95.49,89.87-95.49l36-32.19c21-24,64.15-39.71,108.87-42.14,53.51-2.9,228.92,13.56,228.92,13.56s95,4.6,141.7,73.53,72,121,77.36,132.52S4209.52,2917.22,4192.67,2943.26Z"/><path class="cls-18" d="M1701.73,2325.13l-36.47-7.15c-22.69-5-22.22-18.38-22.22-18.38l4.22-12.29,9.76,7a172.6,172.6,0,0,0,20.39,13.4Z"/><path class="cls-4" d="M1481,5000l127.6-235.68s26-62.81,30.64,0-53,235.68-53,235.68"/><path class="cls-4" d="M2604.45,5000s1.33-16.11-9.36-82.23-10.69-97.54-10.69-97.54,29.88-13.78,42.9,5.37c0,0,9.19-6.37,21.44,174.4"/><path class="cls-1" d="M2857.09,1493.68s-26.79-26.2-52.71,433.31,349.79,565.27,349.79,565.27,450.62,139.63,516.36,225.42c62.15,81.1-17.47,794.84-82.57,975.6-4.82,13.39-14.49,33.58-19.92,46.73-14.65,35.51-6.79,73.7-61.67,137.33-18.49,21.45-85.53-19.86-120.3,1.81-91.69,57.16-201,164.74-300.58,134.31-40.77-12.46-187-234.45-222.28-261.11-50-37.76-48.13-246.13-121.78-298.84,0,0-179.77,19.83-410-74.16L1941.87,4995.94l-1161.65-2L1043.34,736.14l529.54,108.25a1693,1693,0,0,1,605.31,234.28L2843.3,1439.3Z"/><path class="cls-19" d="M2841.26,1436.86s80.18,33.07,55.64,492.58,331.26,565.28,331.26,565.28,488.92,123.39,526.08,319.47c18.66,98.45-53.6,700.78-115.26,881.55-4.57,13.38-19.33,38.23-24.47,51.38-13.87,35.5-80.71,41.1-104.45,41.1-57.31,0-47.15-12.25-66-5.1-96.31,36.5-169.77,58.81-275.65,51-88-6.53-196.71-18.41-230.12-45.07-47.33-37.76-43.5-19.29-113.25-72,0,0-165-208.64-383-302.62l-338.49,1584-1025.94.84-2.79-11.38c-2.31-6.52-2.79-16.93-3.26-23.87-1.65-24.38-.44-43.66,6.43-70.55,2.8-10.94,5.3-20.31,12-29.16l13.33-9c32.29-46.87,50.26-102.16,65.65-157.8l8.37-34.81,31.83-167.74c35.24-187.94,71.14-366.71,154-537.16l16.78-23.07a91.22,91.22,0,0,1,33.09-23.61l50.72-21.74c32.88-9.19,39.8-18.95,50.08-45.67l11.59-16.78,32.33-46.06a469.18,469.18,0,0,0,49.08-83.17l34.88-66.7c54.36-112.5,57-185.92,34.1-309.88L1654.9,2970.9l1.86-31.81c6.21-106,4.27-120.32,55.77-310.66l9.43-40.59,13.26-50a2175.35,2175.35,0,0,0,45.5-251.34l6.53-13.88,21.26-140.94c13.58-144.79,37.24-282.36,99.76-409.79,47.77-97.35,124.86-189.64,198-269.58l-9.18,12.1c31.08-26.69,36,5.81,58.73-7.83,64.41-38.63,152.36-80.94,352.19-92.66a488,488,0,0,1,97.45,4.11,144.06,144.06,0,0,1,21.05,4.71l50.69,15.3a154.16,154.16,0,0,1,15,5.38l53.47,21c13,5.37,27.36,7.48,29.92,8.72Z"/><path class="cls-20" d="M2829.65,1471.33a15.4,15.4,0,0,1,7,6.94c10.92,21.49,46.93,122.85,26.72,501.61-23.65,443.34,342.91,539.49,342.91,539.49s471.92,132.44,520.31,291.63c28.11,92.46-65,692.71-124.43,867.12-4.4,12.91-8.8,10.9-13.75,23.59-13.37,34.25-81.41,47.11-104.29,47.11-55.22,0-45.44-11.83-63.61-4.93-92.81,35.22-163.6,56.74-265.63,49.16-84.82-6.3-221.16-50.33-253.36-76.05-45.61-36.43-17.82-35.06-85-85.91,0,0-176.49-168.6-386.63-259.28L2070.48,5000l-962.33.4-7.48-31.33c-2.23-6.29-2.69-16.33-3.14-23-1.59-23.52,2.25-31.14,8.88-57.08,2.69-10.56,4.06-12.22,10.52-20.76l12.35-4.31c31.12-45.22,77.8-165.63,92.63-219.31L1230,4611l30.67-161.84c34-181.32,45.72-300.82,125.55-465.27l16.17-22.26a87.87,87.87,0,0,1,31.89-22.78l48.87-21c31.69-8.86,77-65.83,86.9-91.61l11.17-16.18,31.16-44.45a452.6,452.6,0,0,0,47.3-80.24l33.6-64.35c52.39-108.54,39.14-184.8,17.07-304.39l-20.13-337.85,1.79-30.68c6-102.25,4.12-116.09,53.75-299.73l9.09-39.16,12.77-48.21a2102.13,2102.13,0,0,0,43.85-242.49l6.29-13.4,20.49-136c13.08-139.69,35.88-272.43,96.13-395.36,46-93.93,120.32-183,190.81-260.1l-8.85,11.68c30-25.75,50.52-35.14,72.43-48.31,62.07-37.27,146.83-78.08,339.39-89.39a468.91,468.91,0,0,1,93.9,4,137.59,137.59,0,0,1,20.29,4.54l48.85,14.76a150.29,150.29,0,0,1,14.42,5.19l64.84,26.75q3.8,1.56,7.5,3.36Z"/><path class="cls-15" d="M2161.23,3286.57l-55.15,193.82c6.45,1.54-36.61-8.1-48.13-23.63-7.84-10.57-36.22-33.79-33.74-56.88,0,0-19.8,30.11-54.09-4.68-15.72-15.95,6.91-33.65,23-55.53,10.11-13.76,11.82-37.39,11.49-53.78-.41-20.28,3.41-31.73-4.6-78.91-4.07-24,7.57-56.3,29.78-40.11,17.83,13,9.57,7.08,31.91,28.08,0,0,48.87-35.86,126-3.94C2187.65,3191,2175.73,3227.11,2161.23,3286.57Z"/><path class="cls-13" d="M2108,3224.32l-19,9.86a55.28,55.28,0,0,0-15.78,12.07c-2.64,3-4.8,5.76-7.14,8.23l-6.07,8.78c-6.12,8.4-7.14,13.62-9.43,19.13-6.18,14.85-10.42,26.57-13.11,44.6l-.44,40.49s-54.31,29.07-31.21-5.75,19.68-84.16,20.77-106.95c4.7-98.7,19.56-22.29,35.59-31.22S2091.39,3213.44,2108,3224.32Z"/><path class="cls-15" d="M2587.41,3441.06c3.7,2.9,31.35,27.87,34.84,31,31.16,28.16,231,172.4,393.13,245.93,60,27.23,141.4,17.63,215.49,8.17,191.77-24.48,268.59-7.4,297.2-44,10.88-13.9-.91-72.95,0-97.5.16-4.13-1.51-15.85-2.29-19.91-2.88-14.94-25.15-30.16-81.43-62.81-58.65-34-142.87-86.28-385.55-137.83C2304.57,3204,2527.27,3394,2587.41,3441.06Z"/><path class="cls-21" d="M2546.64,3399.89c17.92,28.54,104.17,101.28,135.81,112.85,47,17.21,139,109.62,243.06,88.26,56.09-11.52,100-25.19,133.11-37.93a683.27,683.27,0,0,1,227.87-45.63l125.15-3.16s115.79,10.21,139.85-57.71-1017.83-84.76-1017.83-84.76S2536,3382.87,2546.64,3399.89Z"/><path class="cls-22" d="M3420.34,3566c-20.46-.18-40.83,2.59-61.29,2.78-143.5,1.38-230.05,50.85-302,51.24-141.86.76-254.21-117.13-402.19-236.57-312.36-252.13,828.88,96.76,828.88,96.76S3582.13,3567.41,3420.34,3566Z"/><path class="cls-15" d="M2728.4,1602.33c-9.43-56.62-83.74-104-139.84-116.18-169.32-36.77-548.15-183.56-783.88,305.84-83.77,173.91-127.93,340.57-165.21,535.05-67.63,352.93-58.17,711.65,103.15,762.13,0,0,318.72,26.44,778.66,307.15,77.69,47.41,262.27,193.11,404.23,175.4,107.53-13.41,199.21-142.44,522-84.44a207.51,207.51,0,0,0,85.16-2.5h0a42.92,42.92,0,0,0,31.9-32.52c20.5-93.41,87.36-414,83-604.37,0,0,25.42-132.63-60-141.82,0,0-637.79-101.75-766.47-359.11C2724.26,2153.31,2758.28,1781.68,2728.4,1602.33Z"/><path class="cls-23" d="M2646.41,2006.61s20.68-56.68-35.24-100.34-123.32-49.78-123.32-49.78-65.1-10.19-98.81-5.1-107.23,17-126.38,76.9,0,101.3,0,101.3,23,58.21,109.53,86.56c0,0,20.13,6.38,49.07,8.09,44.38,2.63,78.14,10.94,114.85,12.59,0,0,64.8,2.68,81.19-39.83,7.28-18.9,13.72-30.79,18.38-45.2A285.46,285.46,0,0,0,2646.41,2006.61Z"/><g class="cls-24"><path d="M1794.32,2656s-42.87,190.45,179.71,311.92l-68.52-77.67c-14.39-14.83-27.34-32.81-38.47-50.5a486.8,486.8,0,0,1-55-123.1Z"/><path d="M1794.32,2656c-9.74,63.75,7,130.36,41,184.62,4,6,8.34,12.73,12.76,18.4a323.85,323.85,0,0,0,48.62,52.43c23.94,21,50.51,39,78.51,54.29l-3,3.83c-5.22-5.94-64.34-73.14-67.85-77.2a268.88,268.88,0,0,1-22.1-26.48c-31.38-43.38-54.6-92.51-69.55-143.82-6-21-12.27-45-18.35-66.07Zm0,0c5.56,18.83,12.7,41.22,18.41,60.09,16.08,52.6,40.19,103,73,147.21a265.41,265.41,0,0,0,22,25.95c12.17,13.68,65.64,74.15,77.63,87.67l-12.48-6.81c-51.17-27.91-98.15-65.43-131.74-113.48-39.84-57.71-59.69-131.1-46.78-200.63Z"/></g><path class="cls-25" d="M3312.68,3572.72s-75.24-64.53-20.91-175c0,0,6,131.61,77.05,173.19"/><path class="cls-26" d="M3367.7,3570.12l-4.62-26.79s-2.67-16.08,11.32-16.53l18.84-.6s12.3-2.82,12.93,16.83a113.07,113.07,0,0,1-2.68,25.95"/><path class="cls-26" d="M3406.09,3568.56l-4.9-26.74s-2.84-16.05,11.15-16.64l18.83-.8s12.27-2.94,13.1,16.69a113,113,0,0,1-2.4,26"/><path class="cls-26" d="M3445.78,3568l-7.37-26.17s-4.32-15.71,9.55-17.6l18.68-2.55s12-4.07,14.6,15.4a112.92,112.92,0,0,1,0,26.08"/><path class="cls-26" d="M3483.72,3561.76l-5.72-26.58s-3.32-16,10.64-17l18.8-1.37s12.18-3.32,13.61,16.28a113.22,113.22,0,0,1-1.61,26"/><path class="cls-27" d="M3493.74,2762.67c-12.58,100.37-23.08,327.22,129.31,374.62,0,0,36-256.08,24.5-289.4,0,0,23.75-129.44-55.52-141.21-6.72-1-12.75-2.83-18.46-3.78C3534.87,2696.43,3498.62,2723.74,3493.74,2762.67Z"/><path class="cls-15" d="M2079.74,3573.91l-55.15,193.83c6.46,1.54-36.61-8.11-48.12-23.63-7.84-10.57-36.23-33.8-33.75-56.88,0,0-19.8,30.1-54.08-4.69-15.73-15.95,6.9-33.64,23-55.52,10.11-13.77,11.82-37.39,11.49-53.78-.4-20.29,3.41-31.74-4.59-78.92-4.08-24,7.56-56.29,29.77-40.1,17.84,13,9.58,7.07,31.92,28.08,0,0,48.86-35.87,126-3.94C2106.17,3478.36,2094.24,3514.46,2079.74,3573.91Z"/><path class="cls-21" d="M1391.31,4438.71s-108.63,332.77-69.21,413.52c21,43,26,87,15.56,124.65-6.7,24.22-40.07,23-79.45,22.53-44.42-.51-79.39,9.67-111.44-15.11-12.55-9.7-18.67-18.72-15.73-31.19,25.11-106.27,74.42-104.57,90.58-140.74,4.87-10.9,87.65-357.65,86.19-407.15,0,0,44.64-156,46.65-216.78,1.84-55.87,168.4-117.29,169.1-4a91.87,91.87,0,0,1-16,51.86C1482.31,4273.73,1423.48,4364,1391.31,4438.71Z"/><path class="cls-15" d="M1405.06,4430.17s-108.63,332.77-69.21,413.52c21,43,27.37,96.44,17,134.08-6.7,24.22-40.86,22.92-80.24,22.46-44.42-.51-80.68,4.09-112.73-20.69-12.55-9.69-18-22.5-15-35,25.11-106.26,74.41-104.56,90.58-140.73,4.87-10.91,87.64-357.65,86.19-407.16,0,0,44.64-156,46.65-216.77,1.84-55.87,168.4-117.29,169.1-4a92,92,0,0,1-16,51.86C1496.05,4265.19,1437.22,4355.44,1405.06,4430.17Z"/><path class="cls-13" d="M2026.49,3511.67l-19,9.86a55.28,55.28,0,0,0-15.78,12.07c-2.64,3-4.8,5.75-7.14,8.22l-6.07,8.79c-6.12,8.39-7.14,13.61-9.43,19.13-6.17,14.84-10.42,26.57-13.11,44.6l-.43,40.48s-54.32,29.07-31.22-5.75,19.69-84.16,20.77-106.94c4.7-98.7,19.56-22.29,35.59-31.23S2009.9,3500.79,2026.49,3511.67Z"/><path class="cls-21" d="M1549.39,4147.45s-5.16,87.85,230.83,157.42l-121.11-65.37Z"/><path class="cls-15" d="M1998.56,3863.55l-55.15,193.83c6.45,1.54-36.61-8.1-48.13-23.63-7.84-10.57-36.22-33.79-33.74-56.88,0,0-19.8,30.11-54.09-4.68-15.72-16,6.91-33.65,23-55.53,10.11-13.76,11.82-37.39,11.49-53.78-.41-20.28,3.41-31.74-4.6-78.92-4.07-24,7.57-56.29,29.78-40.1,17.83,13,9.57,7.07,31.91,28.08,0,0,48.87-35.86,126-3.94C2025,3768,2013.06,3804.1,1998.56,3863.55Z"/><path class="cls-13" d="M1945.3,3801.31l-19,9.86a55.28,55.28,0,0,0-15.78,12.07c-2.64,3-4.8,5.76-7.14,8.23l-6.07,8.78c-6.12,8.4-7.14,13.61-9.43,19.13-6.18,14.84-10.42,26.57-13.11,44.6l-.44,40.49s-54.31,29.07-31.21-5.75,19.68-84.16,20.77-106.95c4.7-98.7,19.56-22.29,35.59-31.23S1928.72,3790.43,1945.3,3801.31Z"/><path class="cls-21" d="M1586.11,3966.83s-15.91,25.78,7.39,63.1,117.76,173.77,519,250.81L1755.4,4127Z"/><path class="cls-15" d="M2207.67,4249.52s-334.16-36.66-544.32-227.24c-100.81-91.42-126.2-74.6-18.76,45.58,98.36,110,407.36,227,553.09,245.78Z"/><path class="cls-15" d="M2187.47,4374.29s-330.62-35.59-584.58-212.13c-76-52.8-60.3-4.39-21.56,31,86.22,78.72,363.69,193.77,599.68,219.31Z"/><path class="cls-21" d="M1522,4258.71s-30.59,63.55,261.59,148.5"/><path class="cls-15" d="M2173.2,4474.52s-320.57-36.46-603.36-207c-78.7-47.46-47.35,12.53-4.7,40.24,89.15,57.9,362.09,180.43,601.41,204.92Z"/><path class="cls-21" d="M1465.58,4367.11s-33.68,63.55,288.08,148.51"/><path class="cls-15" d="M2152.91,4575s-291.81-21.42-631.8-199.6c-84.72-44.4-58.56,8.93-13.43,37.07s384.42,175.2,638,200.72Z"/><path class="cls-21" d="M1402.76,4476s-38.68,61,317.33,150.79"/><path class="cls-15" d="M2120.44,4674.87s-301.79-21.26-653.57-185.57c-105.78-49.41-60.75,15.1-8,37.19,117.65,49.31,369.86,162.76,653.59,185.51Z"/><path class="cls-21" d="M1415.4,4602.45s-37.46,61.78,320.29,144.38"/><path class="cls-15" d="M2091.92,4778.3s-259.17-.82-610.95-165.13c-105.78-49.41-66.47,10.24-13.77,32.33,117.66,49.3,333,147.19,616.7,169.93Z"/><path class="cls-21" d="M1437.57,4723.82s-37.46,61.78,320.29,144.38"/><path class="cls-15" d="M2070.48,4880.08s-222.1,16-573.88-148.27c-105.78-49.41-52.23,15.12-.28,38.93,110.3,50.56,276.51,130.22,566.15,146.47Z"/><path class="cls-21" d="M1435.71,4850.49s-33.08,79.28,269.38,123.91"/><path class="cls-15" d="M1490.57,4864.45c-103-55-52.24,15.12-.28,38.94,82.12,37.63,194.08,65.66,214.8,71,106.72,27.59,119.48,26.32,288,26C1993.09,5000.4,1658.62,4954.28,1490.57,4864.45Z"/></svg>