<svg id="Layer_1" data-name="Layer 1" xmlns="http://www.w3.org/2000/svg" viewBox="0 0 5000 5000"><defs><style>.cls-1{fill:#3b470e;}.cls-2{fill:#444;}.cls-13,.cls-14,.cls-19,.cls-2,.cls-20,.cls-23,.cls-24,.cls-26,.cls-3,.cls-31,.cls-32,.cls-34,.cls-4,.cls-5,.cls-7,.cls-8{stroke:#000;}.cls-11,.cls-13,.cls-14,.cls-19,.cls-2,.cls-20,.cls-23,.cls-24,.cls-25,.cls-26,.cls-27,.cls-29,.cls-3,.cls-31,.cls-32,.cls-34,.cls-4,.cls-5,.cls-7,.cls-8{stroke-miterlimit:10;}.cls-13,.cls-2,.cls-23,.cls-24,.cls-25,.cls-26,.cls-29,.cls-3,.cls-31,.cls-32,.cls-34,.cls-4,.cls-5,.cls-7{stroke-width:5px;}.cls-3,.cls-33{fill:#472f1f;}.cls-4{fill:#161616;}.cls-5{fill:#b5843c;}.cls-6{fill:#916526;}.cls-12,.cls-7{fill:#513715;}.cls-8{fill:#eaeaea;}.cls-11,.cls-14,.cls-19,.cls-20,.cls-8{stroke-width:8px;}.cls-9{fill:#7f5d2a;}.cls-10{fill:#99691c;}.cls-11,.cls-13,.cls-20,.cls-29{fill:none;}.cls-11{stroke:#a57929;}.cls-14{fill:#3a271e;}.cls-15{fill:#28170f;}.cls-16{opacity:0.09;}.cls-17{opacity:0.29;}.cls-18{fill:#fff;}.cls-19{fill:#211714;}.cls-21{opacity:0.35;}.cls-22{fill:#a67828;}.cls-23{fill:#d49e40;}.cls-24{fill:#7f1d1d;}.cls-25,.cls-27,.cls-29{stroke:#212121;}.cls-26{fill:#842424;}.cls-28{fill:#212121;}.cls-30{fill:#6b1f1f;}.cls-31{fill:#d1d1d1;}.cls-32{fill:#1e1e1d;}.cls-34{fill:#303030;}</style></defs><rect class="cls-1" x="5.67" width="5000" height="5000"/><path class="cls-2" d="M2897.76,4411.25l80,48.58c3.73,2.51,6.26-3.45,7.9-5.47,3.94-4.83,7.55-10.81,15.07-6.38l98,57.45c5.67,3.31,2.93,17.68,1.38,24A137.66,137.66,0,0,1,3058.4,4599a14.57,14.57,0,0,1-17.12,1.55l-88.71-54-7.66-20.93c-1.26-2.39,4.09-8.3-4.72-13.66"/><path class="cls-3" d="M2988.83,4693.85l288.69,178.35a28.32,28.32,0,0,1,10.51,38l-48.29,87.58-228.7.52"/><path class="cls-4" d="M657.86,3470.61l151.55,98.45a21.45,21.45,0,0,1,9.32,22.37l-2.21,10.63,522,333-38.7,60.56L779.08,3665.94l-14.28,8.83a22.1,22.1,0,0,1-23.31,0l-152.71-95"/><path class="cls-5" d="M2982.32,1452.31s30.32-40.58,65.7-68.16c55-42.89,189,49.42,245.66,114.89,9.17,10.61,28.7,36.94,36.77,50.56,12.4,20.92,31.59,59,36.85,82.7l38.52,155.24s124.54,4.37,172.8,67.67-188.86,303.86-188.86,303.86"/><path class="cls-6" d="M3456.68,2001.13s48.25-66.6,57.45-100.3-120-55.2-120-55.2.91,6.21,8.65,33.17,18.38,57,24.26,74.63c4.09,12.24,4.66,19.08,7.16,28.08,4.69,16.88,9.43,31.15,9.43,31.15Z"/><path class="cls-7" d="M2779.47,3650.11S2867.81,3859,3201,3832.54c0,0,68.17-1.92,209.11-50.94,0,0,89.36,21.7,143-11,0,0,17.87-.51,24.51-6.64,0,0,89.63,71.66,162.43,57.19,18.58-3.7,38.76-8.68,61.4-35.06,18.2-21.2,14.36-36,21.56-69.54,0,0-32.41-124.46-173.37-144.74s-316.9,60.46-316.9,60.46-102,41-167.3,79c0,0-3.25,2.27-14.6,9.43s-74.57,51.05-178-21.25c0,0-30.39-23.12-73.72-31.47S2861.17,3659.3,2779.47,3650.11Z"/><path class="cls-5" d="M903.89,5000s-23.74-64.87,11.49-133c0,0,26-4.6,67.41-124.85,0,0,13-29.11,37.53-144.77l38.3-186.38s85.81-423.59,178.87-490.23c0,0,3.71-2.54,14.15-6.62,14.64-5.74,46.32-17.12,63.57-23.37,0,0,35.24-12.25,41-31,0,0,16.47-37.53,44.43-69.32s49-73.91,93.06-157.4l-88.47,64.34,59-83.49-70.85,47.49,51.7-76.6-45.19,18s125.24-227.1,109.53-553.78c-1.23-25.64,0-63.81,1.53-95,2.4-47.57,6.94-96.93,17.14-146.55,14.94-72.63,38.41-156.46,71-277.79,26.26-97.92,48.26-245.87,48.26-245.87L1694,1964.84a541.7,541.7,0,0,1,16.06-76,898.58,898.58,0,0,1,225.62-383.54c53.71-54.09,111.28-90.19,182.23-118.06l89.61-30.64s19.92-10,76.6-16.85,127.15-11.49,127.15-11.49,82-10.72,141.7,6.9,113.36,32.93,208.34,78.13l22.2,12.29a63.65,63.65,0,0,0,17.24,6.12l67,13.76s75.06,20.68,160.08-1.54c0,0,93.45-31.4,191.11,32.17,14.06,9.16,27,22.55,38.78,35.46,8.67,9.5,16.69,18.74,24,25.82,42.89,41.36,56.49,102.93,59.36,119.87,0,0,29.8,52.63,44.43,151.53,8.68,58.73,31.66,111.83,33.91,120.9l21.26,75.27a115.17,115.17,0,0,1-4,68.86l-7.94,16.5a487.8,487.8,0,0,1-39.09,66.81L3378,2174.27s-1.47,4.82-13.89,13.37-16.85,30.64-16.85,30.64-13.28,44.93,16.85,55.66,409.53,178.21,486.64,223.15c0,0,134.81,66.38,216.51,172.08,0,0,137.49,145.4,50.17,325.79-31.42,64.89-93.83,82.52-93.83,158.55,0,0,16.14,113.08,15.7,244.72-.46,138.1-17.14,297.73-68.55,345.32-121.2,112.21-139.69,12.84-141.74-2.23-.32-2.33-.7-4.64-1.19-6.93-6.82-31.52-54.32-197.9-292.65-160.88,0,0-143.26,15-369.79,137.74a118,118,0,0,0-14.6,9.43c-17.1,12.84-78,46.71-180-22.57a269,269,0,0,0-38.61-20.59c-8.88-3.76-6.59-2.92-22.89-7.08-28-7.16-71.18-14.88-129.86-20.33,0,0,34.47,74.36,115,121.43a20.54,20.54,0,0,1,10.22,18.17c-.11,4.65,1,9.12-5.09,17.16,0,0,14.17,1.53,22.21,25.66s19.53,76.6,6.13,119.49-59.75,60.13-86.56,61.66L2799.26,4214s-14.94,67.4,12.63,116.81c0,0,70.85,40.21,92.3,91.15s61.66,154,67.79,196.08,62,299.79,35.23,382"/><path class="cls-8" d="M2572.15,2005s20.68-51.49-35.24-91.15-123.31-45.23-123.31-45.23-65.11-9.25-98.81-4.63-107.24,15.41-126.39,69.86,0,92,0,92,23,52.88,109.54,78.62c0,0,20.12,5.8,49.07,7.36,44.37,2.39,78.14,9.93,114.84,11.43,0,0,64.8,2.44,81.19-36.18,7.29-17.16,13.72-28,18.39-41.06A238.59,238.59,0,0,0,2572.15,2005Z"/><path class="cls-8" d="M3016.4,2076.5s0,72.21,48.51,76.61c0,0,47,11,145.54,6.61s136.34-67.81,136.34-67.81,14.3-17.17,16.85-55.92-15.83-57.24-15.83-57.24-11.75-18-43.92-28.62-39.32-16.29-80.17-18.49-108.25.88-149.1,22.9S3005.17,1998.57,3016.4,2076.5Z"/><path class="cls-9" d="M4028.23,3191s41.71,371.67-36.45,518.61c-1.7,3.19-3.32,6.42-4.8,9.71-3.25,7.18-13,24.21-38.41,43.85,0,0-88.29,74.61-113.78,0-21-61.5-10.3-61.5-47.83-114.89,0,0-35.62-55.92-121.79-73.53s-209.11,14.93-209.11,14.93-149.36,40.22-295.27,126c0,0-31.79,21.83-57.83,23.75-48.31,3.55-86.17-11.49-101.11-22.6,0,0-67.48-44.23-92.52-46.43-9.4-.83-28.19-6-40.37-8.72-20.3-4.54-39.15-5.58-89.49-9.57,0,0-108.51-168.51-161.36-361.53,0,0-55.15-172.34-17.62-372.26,0,0,13-145.53,147.06-137.87,0,0,91,7.69,191.21,21.68,119,16.62,237.47,27.17,261.47,30.4,0,0,131.24,18.9,278.81,5.62S4028.23,3191,4028.23,3191Z"/><ellipse cx="2415.96" cy="1998.41" rx="115.74" ry="120.03"/><ellipse cx="3154.07" cy="2047.08" rx="106.05" ry="109.68"/><path class="cls-10" d="M2543,1695.89a211.52,211.52,0,0,1,35.51,24.85,256.59,256.59,0,0,1,41.55,44.62,216.34,216.34,0,0,1,35.48,74.9,196.24,196.24,0,0,1,4.84,30.28c.07,1.14.45,5.36.52,6.54.09,2,.07,9,.12,10.93a194.43,194.43,0,0,1-5.42,43c.28-5.76,1-11.46,1.11-17.22,0-3.59.23-7.15.27-10.72,0-1.23-.18-5.12-.21-6.43-.07-2.56-.08-6.05-.34-8.54-.19-1.86-.72-9-.92-10.62-.17-1.23-.71-5-.87-6.33-.49-4.83-2-11.89-3-16.74-1-4.12-2-8.25-3.11-12.34-.63-2-1.86-6.09-2.49-8.11-2-6.3-4.85-13.78-7.46-19.83-20.22-46.92-55.32-87.27-95.61-118.27Z"/><path class="cls-11" d="M2704.66,1483.72s1.67,26.82-6.74,81.88S2687,1713.51,2687,1713.51"/><path class="cls-10" d="M2795,1602.45c10.48-1.63,13.67,14,15.36,21.55,5.88,28,8.75,56.48,10,85,.54,12.52.61,25.64.17,38.15s-1.63,25.42-2.2,37.86c-1.25,25-1.49,50.44-.58,75.45.51,11.79.9,23.65,2.75,35.32l.5,2.32c-4.16-12-5.47-24.81-7.17-37.34a546,546,0,0,1-2.73-85.58c.45-9.16,1.2-19.21,1.44-28.31.92-25.1.22-50.25-1.18-75.34-.78-12.17-1.72-25.54-3-37.64-1.33-8.78-1.25-32-13.37-31.45Z"/><path class="cls-11" d="M2941.34,1534.28s-23,74.29-11.49,169.27c0,0,3.06,42.13-13,78.13"/><path class="cls-10" d="M3070.79,1722.7c-48.16,39.39-87.62,91.19-106.47,150.87-5,15.26-8.13,30.86-10.72,46.75a193.25,193.25,0,0,1,1.92-29.79c6.94-49.82,32.84-95.92,68.13-131.25,14.19-14,29.71-26.85,47.14-36.58Z"/><path class="cls-10" d="M1967.81,2132.49c11.41,28.09,24.72,55.55,38.75,82.42a1266.54,1266.54,0,0,0,69.61,117.24c13.79,21,29.37,40.93,45.59,60.21a1126.41,1126.41,0,0,0,127.92,129.24,797.37,797.37,0,0,1-171.55-172.37c-9.81-14.21-20-30.18-29.05-44.85a964.72,964.72,0,0,1-50.44-94c-11.64-25.33-22.55-51.22-30.83-77.86Z"/><path class="cls-10" d="M2026,2496.32c37.62,34.68,74.61,70,108.62,108.3a41.65,41.65,0,0,1,2.74,3.73c2.39,4,5.44,7.2,8.74,10.82a179.25,179.25,0,0,1,14,16.88,168,168,0,0,1,16.46,28.53c8.41,20,13.23,41.35,17.7,62.53,3.59,17.57,6.57,35.28,8.72,53.09-5.13-20.88-10.21-41.69-16-62.36-4.84-17-9.8-34.13-17.07-50.23a170.21,170.21,0,0,0-29.64-43.06c-3.31-3.64-7.07-7.71-9.68-12.2a59.3,59.3,0,0,0-3.69-4.75c-33-37.59-68-73.48-100.82-111.28Z"/><path class="cls-10" d="M1742.62,3089.17c18.68,38.84,41,76,65.41,111.49,34.42,49.16,74,95.62,122.18,131.77,6.84,5.18,13.84,10.08,21.08,14.69,3.69,2.3,10.89,7,14.46,9.45,45.57,29.72,93.49,56.21,143.54,77.59,8.47,3.72,18.48,7.47,27.07,10.9,43.77,19.42,87.43,39.08,130.84,59.31,28.63,13.79,57.89,26.56,85.34,42.76a240.09,240.09,0,0,0,21.63,13.75c83.44,44.84,194,42.73,286.06,32.29-45.5,7-91.68,10.8-137.89,9-58.89-2.66-120.26-13.47-170-47a100.47,100.47,0,0,0-10.75-6.57c-68.1-34.81-138.66-64.87-208.42-96.24-5.83-2.4-13.18-5.13-19-7.53-4-1.71-12-5.11-16-6.82l-15.8-7.21a929.06,929.06,0,0,1-127.69-73.22,385,385,0,0,1-35.43-25.17c-77.18-63.25-136-152.85-176.67-243.25Z"/><path d="M2925.51,2954.11s-101.11,19.4-270.64,181.78l74-76.08c37.3-35.94,82.21-65.23,126.38-87.15l66.65-27.23"/><path d="M3158.87,3064.91s-23.5,1.46-61.78,6.64c-86.81,11.75-219.75,48.24-379.41,192.51,0,0,179.75-166.46,438.13-184.34Z"/><path d="M3237,2954.11s-84.26.62-154.47,30.12c-30.85,13-57.42,32.5-75.59,58.34-3,4.2-8.25,8.49-11.47,12.9-4.77,6.52-9.93,12.1-15.07,19.15-17,23.38-33,51.06-47.74,82.21,0,0,30.93-109.83,130.21-172.39,5.92-3.72,12.33-5.78,22-9.21,14.17-5,32.89-11.14,47.49-14.49A615.3,615.3,0,0,1,3237,2945.43Z"/><path d="M3349.6,3064.91s-124.09,5.88-220.6,115.41c0,0,82-88.09,220.6-101.11Z"/><path d="M3032.49,3246.19s-60.51,1.84-291.06,97c0,0,245.87-82.5,291.06-84Z"/><path d="M3465.26,3237.77c-82.28,3.64-158.4,17-218.3,40.59-91.23,35.87-147.07,85.79-147.07,85.79,41-40.12,89.31-72.91,137.11-93.45,49.92-21.45,94.05-28.77,134-35.23,52.6-8.5,94.22-12.26,94.22-12.26Z"/><polygon points="2957.43 3389.43 2769 3504.32 2952.83 3382.53 2957.43 3389.43"/><path d="M3237,3415.47s-55.15-4.6-124.09,21.44c-55.49,21-126.64,65.23-211.4,134.81,0,0,95.44-73.59,202.21-115.66,44.44-17.51,91.19-25.23,133.28-26.8Z"/><polygon points="3099.89 3571.72 2926.02 3652.91 3096.06 3564.83 3099.89 3571.72"/><path d="M3433.85,3436.91s-57.45-4.59-140.17,86.56c0,0,69.7-69.7,140.17-75.07Z"/><path d="M3025.6,3789s3.06,68.43,76.59,208.34c0,0-72.51-87.32-86.81-208.34Z"/><path d="M3152.74,3796.37s1,51.86,36.26,123.35c0,0-27.06-73.59-27.06-123.35Z"/><path d="M3230.87,3726.19s12.22,49.07,8.68,82.21c-3.21,30.13-9.29,83.23-24,142.47,0,0,49.54-137.36,22-227.23Z"/><path d="M3386.11,3740.49s9.7,21.45,12.25,96.77c0,0,12.26-35-4.08-99.32Z"/><path d="M3494.36,3730.79s16.34,61.78-4.59,132.76c0,0,24-40.34,14.29-132.76Z"/><path d="M3624.06,3742.53s1,31.15-24,64.34c0,0,34.22-29.1,31.66-66.38Z"/><polygon points="3765 3781.85 3789 3828.32 3770.62 3776.74 3765 3781.85"/><path d="M4005,3596s68.94,43.4,103.15,97c0,0-30.13-59.23-99.58-108.26Z"/><path d="M3967.72,3474.45s51.65,9.7,92.43,55.66c32.17,36.25,43.73,57.54,44.42,104.68,0,0,20.94-123.07-136.85-181.28Z"/><polygon points="4118.36 3456.57 4036.61 3423.89 4036.61 3415.21 4118.36 3456.57"/><path d="M4014.7,3372.32s37.79,7.15,113.87,129.7c0,0-16.56-31.74-38.8-66.13-19.79-30.59-43.33-63.08-75.07-79.91Z"/><path d="M4036.61,3310s24.1,8.2,58.77,41.36c26.9,25.73,59.33,67.15,97,127.15,0,0-69.95-151.22-158.8-190.25Z"/><path class="cls-12" d="M3604.43,3187s10.53,283.4-160.09,404.42c0,0,281.42-92.54,363.61,90.84,0,0-78.67-216.45,140.39-419.18Z"/><path class="cls-13" d="M903.89,5002s-23.74-64.87,11.49-133c0,0,26-4.6,67.41-124.86,0,0,13-29.1,37.53-144.76l38.3-186.38s85.81-423.59,178.87-490.23c0,0,3.71-2.54,14.15-6.63,14.64-5.73,46.32-17.11,63.57-23.36,0,0,35.24-12.25,41-31,0,0,16.47-37.53,44.43-69.32s49-73.91,93.06-157.4l-88.47,64.34,59-83.49-70.85,47.49,51.7-76.6-45.19,18s125.24-227.1,109.53-553.78c-1.23-25.64,0-63.82,1.53-95,2.4-47.57,6.94-96.93,17.14-146.55,14.94-72.64,38.41-156.46,71-277.79,26.26-97.92,48.26-245.88,48.26-245.88L1694,1966.83a541.4,541.4,0,0,1,16.06-76,898.58,898.58,0,0,1,225.62-383.54c53.71-54.09,111.28-90.19,182.23-118.06l89.61-30.64s19.92-10,76.6-16.85,127.15-11.49,127.15-11.49,82-10.72,141.7,6.9,113.36,32.93,208.34,78.12l22.2,12.3a63.29,63.29,0,0,0,17.24,6.11l67,13.76s75.06,20.68,160.08-1.53c0,0,93.45-31.4,191.11,32.17,14.06,9.16,27,22.55,38.78,35.46,8.67,9.5,16.69,18.74,24,25.82,42.89,41.36,56.49,102.92,59.36,119.87,0,0,29.8,52.62,44.43,151.53,8.68,58.73,31.66,111.83,33.91,120.9l21.26,75.27a115.13,115.13,0,0,1-4,68.85l-7.94,16.51a487.8,487.8,0,0,1-39.09,66.81L3378,2176.26s-1.47,4.82-13.89,13.37-16.85,30.64-16.85,30.64-13.28,44.93,16.85,55.65,409.53,178.22,486.64,223.15c0,0,134.81,66.39,216.51,172.09,0,0,137.49,145.4,50.17,325.79-31.42,64.89-93.83,82.52-93.83,158.55,0,0,16.14,113.08,15.7,244.72-.46,138.1-17.14,297.72-68.55,345.32-121.2,112.21-139.69,12.84-141.74-2.24-.32-2.32-.7-4.63-1.19-6.92-6.82-31.52-54.32-197.9-292.65-160.88,0,0-143.26,15-369.79,137.73a119.26,119.26,0,0,0-14.6,9.44c-17.1,12.84-78,46.71-180-22.58a269.49,269.49,0,0,0-38.61-20.58c-8.88-3.76-6.59-2.92-22.89-7.08-28-7.16-71.18-14.88-129.86-20.34,0,0,34.47,74.37,115,121.44a20.52,20.52,0,0,1,10.22,18.17c-.11,4.65,1,9.12-5.09,17.16,0,0,14.17,1.53,22.21,25.66s19.53,76.6,6.13,119.49-59.75,60.13-86.56,61.66L2799.26,4216s-14.94,67.4,12.63,116.81c0,0,70.85,40.21,92.3,91.14s61.66,154,67.79,196.09,62,299.79,35.23,382"/><path class="cls-14" d="M4192.67,2943.26s-93.71,229.69-293,357.09c-129.24,82.62-189.46,38.56-205.62,22.06-3.91-4-7.85-8-11.91-11.83-17.63-16.79-63.28-67.38-93-164.46,0,0-79.66-218.95-98.81-264.9a101.67,101.67,0,0,1-6.38-32.17c-.51-17.88-.51-32.17,13.79-47.49s89.87-95.49,89.87-95.49l36-32.19c21-24,64.15-39.71,108.87-42.14,53.51-2.9,228.92,13.56,228.92,13.56s95,4.6,141.7,73.53,72,121,77.36,132.52S4209.52,2917.22,4192.67,2943.26Z"/><path class="cls-15" d="M3512.06,2833.5s-26.42-1.15-24.7,17.62a91,91,0,0,0,7.66,32.93c7.47,16.28,39.45,108.39,39.45,108.39l56.1,149.36s27.58,83.87,57.83,125.61c1,1.41,1.66,2.76,3,4.7,2.29,3.37,5.72,7.84,9.55,12.79,18.07,23.41,47.9,59.21,95.29,64.09,0,0,42.32-1.15,70.85-14.17s60.32-26.62,114.71-67.6,87.7-82.91,87.7-82.91l49-60.9,67.79-86.93s8.61-15.13,11.1-23,32.75-72.58,34.47-75.26,4.79-14.93,2.3-29.29-21.45-17-21.45-17S3774.79,2786.27,3512.06,2833.5Z"/><path class="cls-16" d="M1696.4,2964s110.81,193.38,204.77,282.23S2114.49,3356,2114.49,3356s185,31.77,310.6,124.19c74.71,55,183.78,120.12,264.25,158.7,54.83,26.29,122.56,62.84,122.56,62.84s-27-45.86-62.56-76c-112.74-95.69-361.23-272.81-518-305.19-121.64-25.12-224.4-67.85-304.38-121.3C1808.74,3120.19,1696.4,2964,1696.4,2964Z"/><path class="cls-17" d="M1599.38,3720.06s16.85,71-7.66,116.43c0,0,23.11-33.32,24.58-49.85L1631,3766l-31.6,111.37L1650.27,3776l4.77,59,21-69.95v55.14l18.13-56s11,53.92-14.57,104c0,0,44-80.73,40.19-103.54l-32.53-4.21-27.06,8.17-17.87.52-21.45-12.26Z"/><path class="cls-10" d="M1674.45,2932.15c44,64.22,95.28,123.47,151.18,177.62a954.38,954.38,0,0,0,112,93c9.88,6.84,20.09,13.72,30.23,20.19,4,2.62,8.28,4.79,12.51,7,58.21,29.94,120.67,51.51,183.69,68.89,16,4.47,40.55,10.36,56.59,14.65a958.32,958.32,0,0,1,124.83,42.94c35.89,15.55,71.38,32.83,104.46,53.81,43.44,22.89,88.67,52.29,130.25,81.19a1941.49,1941.49,0,0,1,199.24,160.62c-51.59-44.63-105-87.17-160.34-127-55.46-39.49-112.44-77.3-172.78-108.9-16-10.22-33.89-19.69-50.93-28.34a937.82,937.82,0,0,0-176.79-66.62c-8.82-2.29-33.29-8.56-42.46-10.91-68.44-18.18-136.2-41.16-199.07-74.09-4.35-2.35-8.77-4.65-12.9-7.39-10.19-6.61-20.52-13.62-30.41-20.62-55.56-39.95-106.15-86.63-152.12-137.24-39.18-43.46-75.72-89.49-107.22-138.83Z"/><path class="cls-5" d="M1601.94,3717s7.15,60.77-2.56,93.45l33.19-46.73L1603,3846.19l49.53-73.53v41.87l28.6-60.25-6.64,44.93,25.53-45.44s-.51,40.34-25.53,86.29c0,0,31.66-30.63,46.46-79.15"/><polygon class="cls-17" points="1785.39 3364.19 1750.02 3502.53 1779.7 3464.59 1763.81 3557.68 1793.37 3507.2 1797 3551.04 1861.27 3441.58 1850.62 3504.06 1871.55 3464.74 1848.1 3437.99 1808.74 3486.19 1779.13 3429.51 1785.39 3364.19"/><polyline class="cls-5" points="1871.55 3464.74 1846.53 3487.21 1862.35 3438.2 1791.89 3527.55 1794.45 3492.32 1756.66 3532.15 1786.79 3443.81 1745.94 3480.57 1786.79 3360.06"/><polygon class="cls-17" points="2124.06 3555.64 2117.94 3738.7 2164.66 3600.99 2164.66 3652.09 2208.32 3587.81 2186.87 3711.13 2247.38 3608.87 2234.36 3686.62 2278.79 3621.51 2254.15 3751.72 2304.83 3616.91 2271.13 3608.87 2254.15 3600.99 2186.87 3581.68 2147.81 3600.99 2124.06 3555.64"/><polyline class="cls-5" points="2304.83 3616.91 2247.38 3711.13 2274.75 3590.86 2233.6 3657.51 2237.43 3600.99 2176.91 3677.43 2200.31 3571.72 2162.11 3631.09 2171.55 3581.68 2105.68 3705 2121 3551.04"/><path class="cls-17" d="M2502.19,3966.19l-10.72,91.92,38.3-68.94L2518,4058.11l41.87-70s-46.46,102.64-65.36,124.08c0,0,60.26-36.25,88.34-101.61l-10.21,52.08,35.23-48.51s.51,51.58-14.8,87.32L2637.51,3982l-23.49-2-68.93-8.17-30.64-3.58Z"/><path class="cls-5" d="M2500,3962.62l-11.6,72.51,46.47-79.66-19.4,76.08s26-49,44.42-60.76c0,0,7.66,25.53-65.36,108.76,0,0,38.18-14.81,92.88-103.15l-13.22,60.26,32.68-57.7s5.11,24.51-21.44,100.59l56.68-97"/><circle class="cls-18" cx="2377.89" cy="1937.4" r="29.78"/><circle class="cls-18" cx="3121.02" cy="1993.41" r="27.51"/><path class="cls-19" d="M4083.38,3078.45s35.16-68.38-26.81-85c-51.31-13.79-109.25,18.1-134,65.87-31.4,60.51-20.55,163.91,38.3,153.19,0,0,42.13-5.36,57.45-13.79"/><path class="cls-19" d="M3646.79,3129s60.51,57.45,116.42,16.09,65.11-131,65.11-131,6.89-40.6-35.23-81.2-83.49-4.59-83.49-4.59-35,27.62-44.43,83.49c-8.43,49.79-59.74,21.45-59.74,21.45"/><path class="cls-20" d="M4192.67,2943.26s-93.71,229.69-293,357.09c-129.24,82.62-189.46,38.56-205.62,22.06-3.91-4-7.85-8-11.91-11.83-17.63-16.79-63.28-67.38-93-164.46,0,0-79.66-218.95-98.81-264.9a101.67,101.67,0,0,1-6.38-32.17c-.51-17.88-.51-32.17,13.79-47.49s89.87-95.49,89.87-95.49l36-32.19c21-24,64.15-39.71,108.87-42.14,53.51-2.9,228.92,13.56,228.92,13.56s95,4.6,141.7,73.53,72,121,77.36,132.52S4209.52,2917.22,4192.67,2943.26Z"/><path class="cls-21" d="M1701.73,2325.13l-36.47-7.15c-22.69-5-22.22-18.38-22.22-18.38l4.22-12.29,9.76,7a172.6,172.6,0,0,0,20.39,13.4Z"/><path class="cls-22" d="M1519,5000.23s23.54-36,64.34-108c41.59-73.39,60.39-191.31,56.83-136.46-3.81,58.58-16.61,116.86-29.26,162.51C1597.31,4967.23,1581,5002,1581,5002"/><path class="cls-22" d="M2594.62,5000s-3.07,4.32,9.7-63.09c12.46-65.81,23.36-115.24,23.36-115.24a1485,1485,0,0,0-7.28,178.56"/><path class="cls-5" d="M1703.07,2323s-340.75-231.15-337.3-362.13c0,0-20.2-96,172.34-210.69l8.12-54.33s57.81-11.44,105.24-56.68c27.92-26.63,33.57-79.62,71.86-109.54,80.36-62.79,178.59-122.71,273.88-137.29l167.07-53c3-.85,32.23-9.79,35.12-11,6.64-2.7,31.94-5.12,31.82,84.61a23.64,23.64,0,0,1-4.52,13.29"/><path class="cls-22" d="M1820.74,1965.9,1696.4,2189.42s-180.25-110.2-222.63-217c0,0-6.71-57.6,135.19-157.3C1609,1815.1,1719.72,1920.09,1820.74,1965.9Z"/><path class="cls-23" d="M2203.42,1327s-74.76,11.82-61,275.34c0,0,27.57,377.55-259.66,382.71-230.17,4.14-336.56-289.15-336.56-289.15l61.35-30.35a120.84,120.84,0,0,0,52.44-48.07l25.46-40c16.25-25.65,50.24-106.79,87.57-125.51,101.44-50.87,110.77-35.51,217.81-61Z"/><path class="cls-24" d="M3319.4,1508.2s-4.27-9.92-52.27-4.82l5.85,18.79S3302,1516.84,3319.4,1508.2Z"/><path class="cls-5" d="M3070.79,1374.3s47.32-10.18,108,228c15.77,61.94,54.81,175.66,81.33,199.27,61.72,55,145.7-14.06,145.7-14.06l-40.91-161a245.14,245.14,0,0,0-14.52-42.52c-11.31-24.63-29.39-51.58-56.71-85-50.75-62.1-131.76-120.89-214.11-125.74Z"/><path class="cls-25" d="M2183.72,1737.38s-106.38,227.09-281,328.53c0,0,40.21-272,119.49-352.4L2185.85,1732Z"/><path class="cls-26" d="M3319.4,1508.2s-205,115.69-1562.23-55.88l-21.33,23c-5.38,5.08-22.59,24.91-25.63,31.67-2.53,5.65-4.24,11.08-6.68,17.62a89.74,89.74,0,0,0-3.78,13.15l-.79,3.81c-8.35,22.27-22,50.52-36.37,70.87a89.61,89.61,0,0,1-19.23,19.7l-37.85,50S2056.24,1762.9,2500,1796.9c379.72,29.1,768.93,6.65,905.82-46.68L3394,1685.28q-2.52-11.77-6-23.29a926.24,926.24,0,0,0-48.89-125.58,82.22,82.22,0,0,0-9.72-15.64Z"/><path class="cls-27" d="M1490.62,2686.82s-70.61-87-188.89,107.31c-55.86,91.77-160.39,417.46-176.47,520.86,0,0-39.83,94.45,3.83,217.16,0,0,37.53-179.67,74.29-219,0,0-43.1,123.46,28.65,203.51,0,0-2.41-168.89,25.16-246,0,0,23.55,148.62,34.28,272.7.26,3,23-117.19,31.4-158.31C1363,3188.46,1490.62,2686.82,1490.62,2686.82Z"/><path class="cls-25" d="M2390.43,1519.75s-265.6-88.11-422.62,316.69c-139.35,359.23-245.87,1436.21-654.9,1764.56,0,0,47.65-206.89,52.25-306.28,0,0-33.86,145.48-102.8,166.22,0,0-16.74-172.66,4.6-280.62l-110.3,343.15s-27.57-231.58,0-277.28c0,0-55.15,42.09-55.15,338.55,0,0-56.68-292.62,15.32-539.23,0,0,36.58-115.19,76.6-265.31,68.93-258.6,115.09-342.68,171.73-525.16,89.75-289.15,62.65-599,246.48-753.12,0,0,292.89-259.75,766.25-301.11,0,0,259.17-44.82,352.81,150,0,0,122.21-189.57,317.32-106.85,162.06,68.71,320.87,99.69,416.48,570.13,39.1,192.42,30.14,326,22.78,511.78-.19,5-65.41-25.32-76-30.27-12.85-6-37.14-13-37.36-17.84-1.1-24.63-4.38-42.65,1-90.65,3.15-28.2,64.73-81.45,69.32-148.09,2.23-32.28-16.41-78.76-32.44-131.42-75.89-249.35-151.63-376.83-494.92-361.33C2916.83,1546.29,2793,1553.48,2390.43,1519.75Z"/><path class="cls-28" d="M2485,1527.33c-8.72-22.77-25.34-42.6-46.56-54.6a118.15,118.15,0,0,0-34-12.59,195.81,195.81,0,0,0-36.73-3.79,126.5,126.5,0,0,1,37.42,0c38,5,71.89,33,79.89,71Z"/><path class="cls-28" d="M2524.53,1530.79c-.88-27-5.53-75.84-31.78-89.85-7.16-4.41-13.83-9.36-21.21-13.26-22.18-11.71-47.1-16.09-71.48-21.83,25.26,1.9,51.08,5.65,73.84,17.45,7.6,4.06,14.46,9.17,21.32,13.77,27.68,15.77,30.94,65.1,29.31,93.72Z"/><path class="cls-28" d="M2567.49,1533.31c12.3-40.92,13-88.71-11.85-125.1-8.61-13.37-16.81-28-30.75-36.36a84.52,84.52,0,0,0-14.41-6.89c-20.35-7.6-41.76-12.92-62.42-19.88,21.51,4.63,42.94,8.89,63.9,15.86,25.32,8.3,34.66,23.33,47.78,44.72,25,37.45,23.5,86.9,7.75,127.65Z"/><path class="cls-28" d="M2624.23,1538.35a74.21,74.21,0,0,0,2.88-10.51,297.62,297.62,0,0,0,5.25-32.23c4.58-42.69,1.63-87.92-18.45-126.52-14.78-28.83-40.18-51.39-69.61-64.54-23.1-10.61-48.09-16.23-73.26-19.48,23.64,1.29,47.42,5.55,69.61,14.09,49.27,18.67,81.66,57.91,92.54,109.22,6.23,28.77,6,58.59,1.59,87.55a262.12,262.12,0,0,1-7,32.1,72.85,72.85,0,0,1-3.6,10.32Z"/><path class="cls-28" d="M2948.23,1541.94c3.46-13.23,12.56-24.49,23.69-32.24,11.28-7.94,25-11.8,38.55-13.16,27-2.25,54.15,4.77,78.7,15.51-31.58-8.33-65.29-16.15-97.38-6.93-18.78,5.44-35.65,18.71-43.56,36.82Z"/><path class="cls-28" d="M2903.81,1544.54a104,104,0,0,1,12.47-57.8c13.5-25,39.53-40.27,67.06-44.86,32-5.46,65.08-.24,95.87,8.79-45.55-8.3-102.34-14.8-140.76,16.29-22.83,18.6-33.75,48.7-34.64,77.58Z"/><path class="cls-28" d="M2864,1541.94c-11.85-47.67-.74-102.6,43.7-129.41,42.25-25.08,95-22.74,141.66-14.59-56.14-4.94-126.84-6.43-165.07,42.12-21.82,28.57-25.67,67.2-20.29,101.88Z"/><path class="cls-28" d="M2808.06,1541.94c-12.08-81.62,10.42-180.69,101.27-202.69a173.09,173.09,0,0,1,41.12-4.89,238.87,238.87,0,0,1,41.06,3.43c-27.11-2.37-54.89-2-81.19,5.23-26,7-50,21.94-66.41,43.39-32.94,42.74-39.53,103.09-35.85,155.53Z"/><path class="cls-25" d="M2428.21,1792.81s5,41.48-1.92,69.9c0,0,20.51-29.92,28.15-67.22"/><path class="cls-29" d="M1365.16,3294.72s11.92-44.7,8.44-214.74"/><line class="cls-25" x1="1266.96" y1="3180.32" x2="1317.46" y2="3004.72"/><path class="cls-25" d="M2462.32,1523.17s-57.34,7.62-105.41,51.7c-65.45,60-128.67,182.06-119,382.89,0,0-17.73-483.61,148.48-441.1"/><path class="cls-25" d="M1148.64,3271.84s8.79-46.58,29.72-68.54c6.66-7,18.64-23,20.68-38.81"/><path class="cls-28" d="M1546.23,2047.08c-32.46,125-68.08,249.34-110.68,371.28-13.68,38-27.64,76.1-45.44,112.44-7.58,14.88-17.13,33.8-24.09,48.78-2.76,6.29-7.13,15.76-9.7,22.11-1.12,2.76-3.43,8.4-4.56,11.17-3.46,8.71-7.39,19.48-10.34,28.35-12.37,36.26-19.71,74.05-31.46,110.53-1.3,3.87-3.55,10.41-4.93,14.32-1.81,4.76-3.82,10-5.4,14.14,1-2.79,4.14-11.94,5-14.3,1.29-4.1,3.21-10.3,4.51-14.43,10.87-36.79,17.32-74.75,29.32-111.25,2.83-8.93,6.64-19.86,10-28.65,2.11-5.28,4.49-11.74,6.71-16.94,10.28-25.63,24.31-51.7,36-76.75C1419,2455.35,1440.41,2390,1461.8,2325c29.72-91.74,57.55-185.23,84.43-277.93Z"/><path class="cls-28" d="M1483.68,2762.87c34.09-92.36,84.69-223.38,120.12-316.24,2.7-7.12,6.12-16.06,8.37-23.29s4.87-16.41,6.8-23.78c14.13-54.51,25.52-109.77,37.21-164.87l8.16-39,8.05-39c-14.68,85-29.69,170.13-51.36,253.66-2,7.6-4.8,16.59-7.39,23.95-41.4,110-85.26,219.76-130,328.5Z"/><path class="cls-25" d="M3113.22,1554.78s-64.13,58.62.06,305.16c0,0-97-152.93-38-311.48"/><path class="cls-28" d="M3326.53,1651.52c82.16,128.17,117.29,281.59,123.83,432.38,1.91,50.45,1.08,101.14-5,151.28,5.82-75.37,3.21-151.3-5.4-226.34-6.57-56.12-17.17-112.15-32.72-166.49a838.33,838.33,0,0,0-45.65-123.85l-8-17.1c-4.15-8.21-8.8-17-13-25.19-3.37-5.92-10.65-18.78-14-24.69Z"/><path d="M2681.22,1807.07l53.48,214.61s-25.8-197.44-15.08-213.27"/><path class="cls-25" d="M2837.11,1541.94s83.55,14.55-48.2,383.74c0,0,160.47-330.59,96.9-381.14"/><path d="M3030.2,1807.68s0,39.4-32.94,84c0,0,53.44-44.77,50.93-84.6"/><path class="cls-26" d="M1435,1909.63s-30.92,23.71-66.36,75.46c-43.59,63.65-70.17,152.41-105.11,209.06,0,0-8.81-99.2,3.45-147.07s-58.6-32.17-58.6-32.17-18.38,2.3-142.47,2.3c0,0,327.81-185.78,407.83-282"/><path class="cls-30" d="M1223.17,2010.3,1364,1891.21s-53.18,63.43-72.1,93.88c-11.6,18.66-15.5,41.74-20.94,53.19C1270.91,2038.28,1275.26,2006.21,1223.17,2010.3Z"/><path class="cls-26" d="M1417.38,1788.51s-80.25,16.37-151.19,36.75c-21.86,6.28-103.59,66-108.76,66-3.07,0,31.48-49.69,43.66-62.81,29.87-32.17-16.42-20.63-11.49-22.21,0,0-43.23,4.66-55.89-7.16,0,0,164.81-57.07,225.16-54.93,37.28,1.33,95.8-11.19,116.17-11.19"/><path class="cls-30" d="M1208.36,1823.62a151.85,151.85,0,0,1,32.55-25.09c14-8,32.58-13.5,47.62-17.87,0,0-22.12,6.32-49.53,12.89-14.2,3.41-29.38,7.76-44.55,9.48C1194.45,1803,1226.27,1799.39,1208.36,1823.62Z"/><path class="cls-31" d="M1342.79,3870.83S1797.88,4475.24,1581,5002l1010.3.16s106.45-628.16,225.19-676.72c0,0-23.75-51.32-13-94.22,0,0-74,35.91-154.73,190-70.85,135.19-217.91,190.34-297.19,205.28a607.15,607.15,0,0,1-425.1-75.83c-108-64.54-198.73-184.16-258.13-304.09-70.4-142.15-131.4-302.24-272.68-459.32l-5.71,7.42a233.48,233.48,0,0,0-16.2,24l-4.09,6.95a100.39,100.39,0,0,0-5,8.87l-10,21.07C1349.68,3867,1342.79,3870.83,1342.79,3870.83Z"/><ellipse class="cls-32" cx="626.11" cy="3526.89" rx="65.58" ry="42.88" transform="translate(-2741.33 2305.67) rotate(-60)"/><line class="cls-33" x1="3261.51" y1="4907.94" x2="3214.39" y2="4997.86"/><path d="M3261.51,4907.94c-6.08,15.87-13.54,31.07-21.35,46.12s-16.17,29.77-25.77,43.8c6.07-15.88,13.53-31.08,21.35-46.12s16.18-29.77,25.77-43.8Z"/><path class="cls-4" d="M816.52,3602.06l-2.5,6.2c-6,14.82-8.42,22.86-17.21,35.94-3.78,5.62-12.45,16.89-17.7,21.18l-2.79,2.27"/><path d="M2141.94,4595.3s-42.9,9.19-58.22,68.93c0,0,9.19-65.87,58.22-79.66Z"/><path d="M2182,4606.53s41.36,5.11,31.15,93.45c0,0,18.89-90.89-31.15-103.15Z"/><path d="M2216.67,4584.57s44,8.17,58.29,89.88c0,0-9.86-91.92-58.29-100.09"/><path d="M2157.64,4617.87s-9.83,4-23.36,28c0,0,10.85-28.59,23.36-32.42"/><polyline points="2174.36 4624.4 2166.7 4657.09 2179.47 4624.4"/><path d="M2173.09,4590.57s-46,3.07-49.54,86.81c0,0-3.06-82.21,49.54-95.49Z"/><path d="M2196.37,4586.84l12.82,9.1a72.81,72.81,0,0,1,13.07,13.47l13.38,20.23-7.51-15.15a70,70,0,0,0-21.26-25.31l-8-5.88Z"/><path class="cls-34" d="M1331.81,3871.72a64.56,64.56,0,0,0,23-30.12c7.15-19.92,53.61-71.49,58.21-78.13,0,0,526.47,395.86,934,1238.64l-190.73-1.88S1940.23,4486.28,1331.81,3871.72Z"/><path class="cls-17" d="M2183.68,4600.4s40.8,12.38,23,108.9c0,0,15.57-84.58-24.64-102.77Z"/><path class="cls-17" d="M2197,4587.26s14,12.91,21.7,27.19c7,12.93,8.74,17.79,10,19.91l-3.45-11.23c-4.47-11.75-7.45-15.6-12.38-22.73l-14.17-15.83Z"/><path class="cls-17" d="M2217,4584s36.95,6.91,43.33,101.89c0,0,3.4-95.33-43.25-109.37Z"/><path class="cls-17" d="M2171.55,4589.49s-25.59,2.49-43.66,85c0,0,6.39-74.05,43.66-91.15Z"/><path class="cls-17" d="M2156.81,4617.06s-11.36,15.13-10.85,33.13c0,0-1-27.7,10.85-35.62Z"/><path class="cls-21" d="M2636.15,1685.94s3.4,106.87-20.34,221.68l6.89-220.92Z"/><path class="cls-21" d="M2887.8,1670.24s-60.11,207.29-91.51,273.11c0,0,38.61-56.14,70-155.54,13.78-43.66,32.56-147.07,34.43-174.64Z"/><path class="cls-25" d="M2553.56,1529.3s75.27,91,47.41,360.41c0,0,71.52-248.86,10.63-356.4"/><path class="cls-21" d="M3055.2,1689s1,82.72,38.31,189.38c0,0-25.79-139.59-14.3-188.61Z"/><path class="cls-21" d="M2287,1598.07s-37.72,91.78-27.38,339.33c0,0,2.3-284.4,68.93-348.74Z"/></svg>