<svg id="Layer_1" data-name="Layer 1" xmlns="http://www.w3.org/2000/svg" viewBox="0 0 5000 5000"><defs><style>.cls-1{fill:#b2b2b2;}.cls-2{fill:#dbdbdb;}.cls-3{stroke:#1d1d1b;}.cls-10,.cls-14,.cls-19,.cls-20,.cls-22,.cls-23,.cls-24,.cls-25,.cls-26,.cls-27,.cls-3,.cls-4,.cls-5,.cls-7,.cls-8{stroke-miterlimit:10;}.cls-4{fill:#d49e40;}.cls-14,.cls-19,.cls-20,.cls-22,.cls-23,.cls-26,.cls-27,.cls-4,.cls-5,.cls-7,.cls-8{stroke:#000;}.cls-23,.cls-24,.cls-25,.cls-26,.cls-27,.cls-4,.cls-5,.cls-7{stroke-width:5px;}.cls-12,.cls-5{fill:#8b6118;}.cls-6{fill:#a67828;}.cls-10,.cls-20,.cls-7{fill:none;}.cls-8{fill:#eaeaea;}.cls-10,.cls-14,.cls-19,.cls-20,.cls-8{stroke-width:8px;}.cls-9{fill:#b78737;}.cls-10{stroke:#a57929;}.cls-11{fill:#c7c7c7;}.cls-13{opacity:0.27;}.cls-14{fill:#3a271e;}.cls-15{fill:#28170f;}.cls-16{opacity:0.12;}.cls-17{opacity:0.29;}.cls-18{fill:#fff;}.cls-19{fill:#211714;}.cls-21{opacity:0.35;}.cls-24{stroke:#232323;}.cls-25{stroke:#191919;}.cls-26{fill:#1b1d23;}.cls-27{fill:#0d0e0f;}.cls-28{opacity:0.8;}.cls-29{fill:#24b219;opacity:0.05;}</style></defs><rect class="cls-1" width="5000" height="5000"/><path class="cls-2" d="M1246.66,3110.09s-64.22,95.57-93.45,398.44c0,0,47.62-185.74,110.68-404Z"/><path class="cls-2" d="M1351.21,3187.47s33.7,120.13-104.55,384.84c0,0,139-155.55,123.7-387.89Z"/><path class="cls-3" d="M1371.38,2323a711.6,711.6,0,0,0,12.77-109.36c10.72-270.38,36-992.57,847.19-992.57Z"/><path class="cls-4" d="M3438.32,2068.91c49-13.78,56.81-34.46,56.81-34.46s116.68,185.87,132,208.85,56.13,87,56.13,87l3.8,5.91a278.43,278.43,0,0,0,21.59,26.39h0c3.53,3.79,11.07,3.44,13.77-1l.11-.15a144.26,144.26,0,0,0,17.6-31.72l.87-2.18c8.94-26.55,19.66-79.91,27.32-103.66s26-49.53,46.47-55.91c7.43-2.32,17-10.19,23.36-16,4-3.69,6.78-6.53,6.78-6.53,19.4-13.79,74.79-62.51,74.79-62.51l43.21-44.15a236,236,0,0,0,17-19.33c9.71-12.36,19.25-24.8,27.65-39.16a99.31,99.31,0,0,0,4.85-9.4l12.77-25.07c20.94-47,18.64-70.21-.13-98.19l-.22-.44a201.14,201.14,0,0,0-24.42-37.45h0A249.78,249.78,0,0,0,3967,1773.5l-62.05-54.63c-197.1-126.13-225.67-129.43-243.57-137.87-38.64-18.21-83.11-15.06-83.11-15.06-28.8-10.38-50.42-21-72-35.44-12.23-8.19-28.48-20-37.19-27a367.51,367.51,0,0,1-28-24.83,141.57,141.57,0,0,0-10.79-9.53,234,234,0,0,1-42.1-43.92c-23.33-31.39-56.43-53.51-62.16-58.24-11.26-9.32-100.1-69-194.31-54.11s-149.36,137.88-149.36,137.88"/><path class="cls-5" d="M2779.47,3650.11S2867.81,3859,3201,3832.54c0,0,68.17-1.92,209.11-50.94,0,0,89.36,21.7,143-11,0,0,17.87-.51,24.51-6.64,0,0,89.63,71.66,162.43,57.19,18.58-3.7,38.76-8.68,61.4-35.06,18.2-21.2,14.36-36,21.56-69.54,0,0-32.41-124.46-173.37-144.74s-316.9,60.46-316.9,60.46-102,41-167.3,79c0,0-3.25,2.27-14.6,9.43s-74.57,51.05-178-21.25c0,0-30.39-23.12-73.72-31.47S2861.17,3659.3,2779.47,3650.11Z"/><path class="cls-6" d="M3470.62,1579.47s-62-26-85.79-55.92L3299,1448.74s-124.47-119-231.32-14.8L3436.15,1985s16.47-6.89,19.53-10.72c0,0-14.94-23.36-19.91-72S3452,1779,3452,1779s11-37.15,18.64-55.15c0,0,14.55-26.81,13-60.13S3470.62,1579.47,3470.62,1579.47Z"/><path class="cls-4" d="M903.89,5000s-23.74-64.87,11.49-133c0,0,26-4.6,67.41-124.85,0,0,13-29.11,37.53-144.77l38.3-186.38s85.81-423.59,178.87-490.23c0,0,3.71-2.54,14.15-6.62,14.64-5.74,46.32-17.12,63.57-23.37,0,0,35.24-12.25,41-31,0,0,16.47-37.53,44.43-69.32s49-73.91,93.06-157.4l-88.47,64.34,59-83.49-70.85,47.49,51.7-76.6-45.19,18s125.24-227.1,109.53-553.78c-1.23-25.64,0-63.81,1.53-95,2.4-47.57,6.94-96.93,17.14-146.55,14.94-72.63,38.41-156.46,71-277.79,26.26-97.92,48.26-245.87,48.26-245.87L1694,1964.84a541.7,541.7,0,0,1,16.06-76,898.58,898.58,0,0,1,225.62-383.54c53.71-54.09,111.28-90.19,182.23-118.06l89.61-30.64s19.92-10,76.6-16.85,127.15-11.49,127.15-11.49,82-10.72,141.7,6.9,113.36,32.93,208.34,78.13l22.2,12.29a63.65,63.65,0,0,0,17.24,6.12l67,13.76s75.06,20.68,160.08-1.54c0,0,93.45-31.4,191.11,32.17,14.06,9.16,27,22.55,38.78,35.46,8.67,9.5,16.69,18.74,24,25.82,42.89,41.36,56.49,102.93,59.36,119.87,0,0,29.8,52.63,44.43,151.53,8.68,58.73,31.66,111.83,33.91,120.9l21.26,75.27a115.17,115.17,0,0,1-4,68.86l-7.94,16.5a487.8,487.8,0,0,1-39.09,66.81L3378,2174.27s-1.47,4.82-13.89,13.37-16.85,30.64-16.85,30.64-13.28,44.93,16.85,55.66,409.53,178.21,486.64,223.15c0,0,134.81,66.38,216.51,172.08,0,0,137.49,145.4,50.17,325.79-31.42,64.89-93.83,82.52-93.83,158.55,0,0,16.14,113.08,15.7,244.72-.46,138.1-17.14,297.73-68.55,345.32-121.2,112.21-139.69,12.84-141.74-2.23-.32-2.33-.7-4.64-1.19-6.93-6.82-31.52-54.32-197.9-292.65-160.88,0,0-143.26,15-369.79,137.74a118,118,0,0,0-14.6,9.43c-17.1,12.84-78,46.71-180-22.57a269,269,0,0,0-38.61-20.59c-8.88-3.76-6.59-2.92-22.89-7.08-28-7.16-71.18-14.88-129.86-20.33,0,0,34.47,74.36,115,121.43a20.54,20.54,0,0,1,10.22,18.17c-.11,4.65,1,9.12-5.09,17.16,0,0,14.17,1.53,22.21,25.66s19.53,76.6,6.13,119.49-59.75,60.13-86.56,61.66L2799.26,4214s-14.94,67.4,12.63,116.81c0,0,70.85,40.21,92.3,91.15s61.66,154,67.79,196.08,62,299.79,35.23,382"/><path class="cls-7" d="M3408.06,1448.74l37.28,44.94c21.45,29.11,33.19,118.47,38.81,149.62s1,61.79-8.68,74.55-41.36,123.06-37.28,179.24,22,79.65,22,79.65l35.74,60.26"/><path class="cls-8" d="M2572.15,1993.09s20.68-56.69-35.24-100.35S2413.6,1843,2413.6,1843s-65.11-10.19-98.81-5.1-107.24,17-126.39,76.9,0,101.3,0,101.3,23,58.22,109.54,86.56c0,0,20.12,6.38,49.07,8.09,44.37,2.63,78.14,10.94,114.84,12.59,0,0,64.8,2.68,81.19-39.83,7.29-18.89,13.72-30.78,18.39-45.19A284.69,284.69,0,0,0,2572.15,1993.09Z"/><path class="cls-8" d="M3016.4,2063s0,83.75,48.51,88.85c0,0,47,12.77,145.54,7.66s136.34-78.64,136.34-78.64,14.3-19.91,16.85-64.85-15.83-66.38-15.83-66.38-11.75-20.94-43.92-33.19-39.32-18.89-80.17-21.45-108.25,1-149.1,26.56S3005.17,1972.66,3016.4,2063Z"/><path class="cls-9" d="M4028.23,3191s41.71,371.67-36.45,518.61c-1.7,3.19-3.32,6.42-4.8,9.71-3.25,7.18-13,24.21-38.41,43.85,0,0-88.29,74.61-113.78,0-21-61.5-10.3-61.5-47.83-114.89,0,0-35.62-55.92-121.79-73.53s-209.11,14.93-209.11,14.93-149.36,40.22-295.27,126c0,0-31.79,21.83-57.83,23.75-48.31,3.55-86.17-11.49-101.11-22.6,0,0-67.48-44.23-92.52-46.43-9.4-.83-28.19-6-40.37-8.72-20.3-4.54-39.15-5.58-89.49-9.57,0,0-108.51-168.51-161.36-361.53,0,0-55.15-172.34-17.62-372.26,0,0,13-145.53,147.06-137.87,0,0,91,7.69,191.21,21.68,119,16.62,237.47,27.17,261.47,30.4,0,0,131.24,18.9,278.81,5.62S4028.23,3191,4028.23,3191Z"/><ellipse cx="2415.96" cy="1998.41" rx="115.74" ry="120.03"/><ellipse cx="3154.07" cy="2047.08" rx="106.05" ry="109.68"/><path class="cls-10" d="M2543,1695.89s138.64,84.26,112.6,235.15"/><path class="cls-10" d="M2704.66,1483.72s1.67,26.82-6.74,81.88S2687,1713.51,2687,1713.51"/><path class="cls-10" d="M2795,1602.45s8.43-2.3,12.26,13.78,13,85,8.42,148.6,1.54,122.55,5.37,133.28"/><path class="cls-10" d="M2941.34,1534.28s-23,74.29-11.49,169.27c0,0,3.06,42.13-13,78.13"/><path class="cls-10" d="M3070.79,1722.7S2962,1791.64,2953.6,1920.32"/><path class="cls-10" d="M1967.81,2132.49s31.29,92.86,109.41,208.43c31.52,46.63,98.44,122.61,172.46,180.68"/><path class="cls-10" d="M2026,2496.32s101.87,103.4,108,114.13,19.92,18.38,36.77,50.55S2203,2780.2,2203,2780.2"/><path class="cls-10" d="M1742.62,3089.17S1823,3273,1957.09,3355c0,0,83.07,58.25,177.19,93.54,0,0,194.29,85.69,218,102.54s106.47,69.7,307.91,42.13"/><path d="M2925.51,2954.11s-101.11,19.4-270.64,181.78l74-76.08c37.3-35.94,82.21-65.23,126.38-87.15l66.65-27.23"/><path class="cls-11" d="M3158.87,3064.91s-23.5,1.46-61.78,6.64c-86.81,11.75-219.75,48.24-379.41,192.51,0,0,179.75-166.46,438.13-184.34Z"/><path d="M3237,2954.11s-84.26.62-154.47,30.12c-30.85,13-57.42,32.5-75.59,58.34-3,4.2-8.25,8.49-11.47,12.9-4.77,6.52-9.93,12.1-15.07,19.15-17,23.38-33,51.06-47.74,82.21,0,0,30.93-109.83,130.21-172.39,5.92-3.72,12.33-5.78,22-9.21,14.17-5,32.89-11.14,47.49-14.49A615.3,615.3,0,0,1,3237,2945.43Z"/><path d="M3349.6,3064.91s-124.09,5.88-220.6,115.41c0,0,82-88.09,220.6-101.11Z"/><path d="M3032.49,3246.19s-60.51,1.84-291.06,97c0,0,245.87-82.5,291.06-84Z"/><path d="M3465.26,3237.77c-82.28,3.64-158.4,17-218.3,40.59-91.23,35.87-147.07,85.79-147.07,85.79,41-40.12,89.31-72.91,137.11-93.45,49.92-21.45,94.05-28.77,134-35.23,52.6-8.5,94.22-12.26,94.22-12.26Z"/><polygon points="2957.43 3389.43 2769 3504.32 2952.83 3382.53 2957.43 3389.43"/><path class="cls-11" d="M3237,3415.47s-55.15-4.6-124.09,21.44c-55.49,21-126.64,65.23-211.4,134.81,0,0,95.44-73.59,202.21-115.66,44.44-17.51,91.19-25.23,133.28-26.8Z"/><polygon points="3099.89 3571.72 2926.02 3652.91 3096.06 3564.83 3099.89 3571.72"/><path d="M3433.85,3436.91s-57.45-4.59-140.17,86.56c0,0,69.7-69.7,140.17-75.07Z"/><path d="M3025.6,3789s3.06,68.43,76.59,208.34c0,0-72.51-87.32-86.81-208.34Z"/><path d="M3152.74,3796.37s1,51.86,36.26,123.35c0,0-27.06-73.59-27.06-123.35Z"/><path d="M3230.87,3726.19s12.22,49.07,8.68,82.21c-3.21,30.13-9.29,83.23-24,142.47,0,0,49.54-137.36,22-227.23Z"/><path d="M3386.11,3740.49s9.7,21.45,12.25,96.77c0,0,12.26-35-4.08-99.32Z"/><path d="M3494.36,3730.79s16.34,61.78-4.59,132.76c0,0,24-40.34,14.29-132.76Z"/><path d="M3624.06,3742.53s1,31.15-24,64.34c0,0,34.22-29.1,31.66-66.38Z"/><polygon points="3765 3781.85 3789 3828.32 3770.62 3776.74 3765 3781.85"/><path d="M3967.72,3474.45s51.65,9.7,92.43,55.66c32.17,36.25,43.73,57.54,44.42,104.68,0,0,20.94-123.07-136.85-181.28Z"/><polygon points="4118.36 3456.57 4036.61 3423.89 4036.61 3415.21 4118.36 3456.57"/><path d="M4036.61,3310s24.1,8.2,58.77,41.36c26.9,25.73,59.33,67.15,97,127.15,0,0-69.95-151.22-158.8-190.25Z"/><path class="cls-12" d="M3604.43,3187s10.53,283.4-160.09,404.42c0,0,281.42-92.54,363.61,90.84,0,0-78.67-216.45,140.39-419.18Z"/><path class="cls-13" d="M3333.51,1375s82.3,123.37,87.32,163.91c2,15.73,4.35,16.33,5.11,19.66,3.15,14,3.45,15,5.61,24,4.32,17.9,5.42,40.25,9.19,98.81,0,0-1.53,25.28-16.85,57.45s-27.57,78.51-22.21,135.57c0,0,58.6,153.58,37.15,192.26,0,0,37.91-7.28,56.3-32.17,0,0-56.43-79.66-56.43-131.24,0,0-4.59-98.55,36.26-180.51,0,0,21.44-42.13,8.17-87.57,0,0-14.3-103.66-37.79-141.45S3337.6,1369.09,3333.51,1375Z"/><path class="cls-7" d="M903.89,5002s-23.74-64.87,11.49-133c0,0,26-4.6,67.41-124.86,0,0,13-29.1,37.53-144.76l38.3-186.38s85.81-423.59,178.87-490.23c0,0,3.71-2.54,14.15-6.63,14.64-5.73,46.32-17.11,63.57-23.36,0,0,35.24-12.25,41-31,0,0,16.47-37.53,44.43-69.32s49-73.91,93.06-157.4l-88.47,64.34,59-83.49-70.85,47.49,51.7-76.6-45.19,18s125.24-227.1,109.53-553.78c-1.23-25.64,0-63.82,1.53-95,2.4-47.57,6.94-96.93,17.14-146.55,14.94-72.64,38.41-156.46,71-277.79,26.26-97.92,48.26-245.88,48.26-245.88L1694,1966.83a541.4,541.4,0,0,1,16.06-76,898.58,898.58,0,0,1,225.62-383.54c53.71-54.09,111.28-90.19,182.23-118.06l89.61-30.64s19.92-10,76.6-16.85,127.15-11.49,127.15-11.49,82-10.72,141.7,6.9,113.36,32.93,208.34,78.12l22.2,12.3a63.29,63.29,0,0,0,17.24,6.11l67,13.76s75.06,20.68,160.08-1.53c0,0,93.45-31.4,191.11,32.17,14.06,9.16,27,22.55,38.78,35.46,8.67,9.5,16.69,18.74,24,25.82,42.89,41.36,56.49,102.92,59.36,119.87,0,0,29.8,52.62,44.43,151.53,8.68,58.73,31.66,111.83,33.91,120.9l21.26,75.27a115.13,115.13,0,0,1-4,68.85l-7.94,16.51a487.8,487.8,0,0,1-39.09,66.81L3378,2176.26s-1.47,4.82-13.89,13.37-16.85,30.64-16.85,30.64-13.28,44.93,16.85,55.65,409.53,178.22,486.64,223.15c0,0,134.81,66.39,216.51,172.09,0,0,137.49,145.4,50.17,325.79-31.42,64.89-93.83,82.52-93.83,158.55,0,0,16.14,113.08,15.7,244.72-.46,138.1-17.14,297.72-68.55,345.32-121.2,112.21-139.69,12.84-141.74-2.24-.32-2.32-.7-4.63-1.19-6.92-6.82-31.52-54.32-197.9-292.65-160.88,0,0-143.26,15-369.79,137.73a119.26,119.26,0,0,0-14.6,9.44c-17.1,12.84-78,46.71-180-22.58a269.49,269.49,0,0,0-38.61-20.58c-8.88-3.76-6.59-2.92-22.89-7.08-28-7.16-71.18-14.88-129.86-20.34,0,0,34.47,74.37,115,121.44a20.52,20.52,0,0,1,10.22,18.17c-.11,4.65,1,9.12-5.09,17.16,0,0,14.17,1.53,22.21,25.66s19.53,76.6,6.13,119.49-59.75,60.13-86.56,61.66L2799.26,4216s-14.94,67.4,12.63,116.81c0,0,70.85,40.21,92.3,91.14s61.66,154,67.79,196.09,62,299.79,35.23,382"/><path class="cls-14" d="M4192.67,2943.26s-93.71,229.69-293,357.09c-129.24,82.62-189.46,38.56-205.62,22.06-3.91-4-7.85-8-11.91-11.83-17.63-16.79-63.28-67.38-93-164.46,0,0-79.66-218.95-98.81-264.9a101.67,101.67,0,0,1-6.38-32.17c-.51-17.88-.51-32.17,13.79-47.49s89.87-95.49,89.87-95.49l36-32.19c21-24,64.15-39.71,108.87-42.14,53.51-2.9,228.92,13.56,228.92,13.56s95,4.6,141.7,73.53,72,121,77.36,132.52S4209.52,2917.22,4192.67,2943.26Z"/><path class="cls-15" d="M3512.06,2833.5s-26.42-1.15-24.7,17.62a91,91,0,0,0,7.66,32.93c7.47,16.28,39.45,108.39,39.45,108.39l56.1,149.36s27.58,83.87,57.83,125.61c1,1.41,1.66,2.76,3,4.7,2.29,3.37,5.72,7.84,9.55,12.79,18.07,23.41,47.9,59.21,95.29,64.09,0,0,42.32-1.15,70.85-14.17s60.32-26.62,114.71-67.6,87.7-82.91,87.7-82.91l49-60.9,67.79-86.93s8.61-15.13,11.1-23,32.75-72.58,34.47-75.26,4.79-14.93,2.3-29.29-21.45-17-21.45-17S3774.79,2786.27,3512.06,2833.5Z"/><path class="cls-4" d="M1703.07,2323s-216-139-351.57-309.06c-28.23-35.4-36.16-73.53-36.16-97.78,0-64.22,94.53-136.35,168.28-180.26l-1.14-82.73s-295.28-201.06-380.3-368.81c0,0-16.09-34.34-20.68-58.85s-27.58-70-33.71-229.78c0,0,5.11-137.88,120-71,0,0,38.3,23,70,34.21s118.63,48.79,223.15,76.6c103.66,27.57,350.3,72,445.79,33.7,0,0,32-12.35,52.76-2.42,2.74,1.31,5.5,2.57,8.34,3.63a235,235,0,0,1,54.81,29.43s55.15,70.46,86.81,98c14.2,12.37,45.58,47.94,71.49,88.85,31.86,50.29,59.75,120.77,47.49,134.3"/><path class="cls-16" d="M1696.4,2964s110.81,193.38,204.77,282.23S2114.49,3356,2114.49,3356s185,31.77,310.6,124.19c74.71,55,183.78,120.12,264.25,158.7,54.83,26.29,122.56,62.84,122.56,62.84s-27-45.86-62.56-76c-112.74-95.69-361.23-272.81-518-305.19-121.64-25.12-224.4-67.85-304.38-121.3C1808.74,3120.19,1696.4,2964,1696.4,2964Z"/><path class="cls-6" d="M1797.77,1932.57l-137.11,248.94s-160.09-137.87-196.09-235.15c0,0-12.76-22.21,1.54-53.62s53.87-71,110.55-112.34l-1.4-186s-272-166.59-351.2-306c0,0-19.4-8.68,103.15,37.79l8.17,1.53s91.92,5.62,168-12.25,100.6-31.66,100.6-31.66,100.59-45.45,214.47-143.49c0,0,39.65-7.59,93.65,23.61a108.73,108.73,0,0,1,28.18,23.43c15.3,17.91,41.3,51.63,49,82.09,0,0,14.93,77.17,93.44,146.1,0,0-91.53,200.3-121.4,232.09,0,0-6.13,14.17-26.81,6.51s-34.85-6.89-34.85-6.89-17.24-3.07-31.79,15.7-25.66,49-25.66,49-18.38,61.28-26.81,73.91-6.89,27.45-6.89,27.45,2.3,22.21,4.85,30.38,11,46.22,2.3,56.68Z"/><path class="cls-17" d="M1599.38,3720.06s16.85,71-7.66,116.43c0,0,23.11-33.32,24.58-49.85L1631,3766l-31.6,111.37L1650.27,3776l4.77,59,21-69.95v55.14l18.13-56s11,53.92-14.57,104c0,0,44-80.73,40.19-103.54l-32.53-4.21-27.06,8.17-17.87.52-21.45-12.26Z"/><path class="cls-4" d="M1163.46,919.88s-91.41-54.13-108.77,55.15c-4.9,30.85-6.6,56.65,3.57,102.63,27.58,124.6,86.81,162.39,169,208.86,0,0,84.25,38.29,111.83,43.4s191.48-1.53,281.87-49,128.68-79.66,145-91.41,137.87-111.31,149.11-119.48c0,0-27.67,9.24-77.62,13.78-42.13,3.83-160.85-8.42-186.13-12.25,0,0-112.77-13-179.23-35.24,0,0-139.41-36.76-166.22-52.85l-65.36-25.79L1224,951.21a246.82,246.82,0,0,1-49.35-24Z"/><path class="cls-13" d="M1056,1085.57s8.34,172.57,119,275.15c37.43,34.7,110.18,62,151,70.68,0,0,357.32,46,529.66-275.74,0,0,52.85-85,64.34-90.77,0,0-14.72,6.56-105.87,82.39,0,0-126.22,102.59-179.83,121.74,0,0-94.47,64.47-296.94,57.7,0,0-211.45-50.51-261-188.21C1054.17,1077,1058.74,1107.11,1056,1085.57Z"/><path class="cls-10" d="M1674.45,2932.15s114.89,181.53,293.36,294.89c0,0,79.66,48.26,231.32,85s248.93,101.11,248.93,101.11,145.28,72.71,331.41,238.92"/><path class="cls-4" d="M1601.94,3717s7.15,60.77-2.56,93.45l33.19-46.73L1603,3846.19l49.53-73.53v41.87l28.6-60.25-6.64,44.93,25.53-45.44s-.51,40.34-25.53,86.29c0,0,31.66-30.63,46.46-79.15"/><polygon class="cls-17" points="1785.39 3364.19 1750.02 3502.53 1779.7 3464.59 1763.81 3557.68 1793.37 3507.2 1797 3551.04 1861.27 3441.58 1850.62 3504.06 1871.55 3464.74 1848.1 3437.99 1808.74 3486.19 1779.13 3429.51 1785.39 3364.19"/><polyline class="cls-4" points="1871.55 3464.74 1846.53 3487.21 1862.35 3438.2 1791.89 3527.55 1794.45 3492.32 1756.66 3532.15 1786.79 3443.81 1745.94 3480.57 1786.79 3360.06"/><polygon class="cls-17" points="2124.06 3555.64 2117.94 3738.7 2164.66 3600.99 2164.66 3652.09 2208.32 3587.81 2186.87 3711.13 2247.38 3608.87 2234.36 3686.62 2278.79 3621.51 2254.15 3751.72 2304.83 3616.91 2271.13 3608.87 2254.15 3600.99 2186.87 3581.68 2147.81 3600.99 2124.06 3555.64"/><polyline class="cls-4" points="2304.83 3616.91 2247.38 3711.13 2274.75 3590.86 2233.6 3657.51 2237.43 3600.99 2176.91 3677.43 2200.31 3571.72 2162.11 3631.09 2171.55 3581.68 2105.68 3705 2121 3551.04"/><path class="cls-17" d="M2502.19,3966.19l-10.72,91.92,38.3-68.94L2518,4058.11l41.87-70s-46.46,102.64-65.36,124.08c0,0,60.26-36.25,88.34-101.61l-10.21,52.08,35.23-48.51s.51,51.58-14.8,87.32L2637.51,3982l-23.49-2-68.93-8.17-30.64-3.58Z"/><path class="cls-4" d="M2500,3962.62l-11.6,72.51,46.47-79.66-19.4,76.08s26-49,44.42-60.76c0,0,7.66,25.53-65.36,108.76,0,0,38.18-14.81,92.88-103.15l-13.22,60.26,32.68-57.7s5.11,24.51-21.44,100.59l56.68-97"/><circle class="cls-18" cx="2377.89" cy="1937.4" r="29.78"/><circle class="cls-18" cx="3121.02" cy="1993.41" r="27.51"/><path class="cls-19" d="M4083.38,3078.45s35.16-68.38-26.81-85c-51.31-13.79-109.25,18.1-134,65.87-31.4,60.51-20.55,163.91,38.3,153.19,0,0,42.13-5.36,57.45-13.79"/><path class="cls-19" d="M3646.79,3129s60.51,57.45,116.42,16.09,65.11-131,65.11-131,6.89-40.6-35.23-81.2-83.49-4.59-83.49-4.59-35,27.62-44.43,83.49c-8.43,49.79-59.74,21.45-59.74,21.45"/><path class="cls-20" d="M4192.67,2943.26s-93.71,229.69-293,357.09c-129.24,82.62-189.46,38.56-205.62,22.06-3.91-4-7.85-8-11.91-11.83-17.63-16.79-63.28-67.38-93-164.46,0,0-79.66-218.95-98.81-264.9a101.67,101.67,0,0,1-6.38-32.17c-.51-17.88-.51-32.17,13.79-47.49s89.87-95.49,89.87-95.49l36-32.19c21-24,64.15-39.71,108.87-42.14,53.51-2.9,228.92,13.56,228.92,13.56s95,4.6,141.7,73.53,72,121,77.36,132.52S4209.52,2917.22,4192.67,2943.26Z"/><path class="cls-21" d="M1701.73,2325.13l-36.47-7.15c-22.69-5-22.22-18.38-22.22-18.38l4.22-12.29,9.76,7a172.6,172.6,0,0,0,20.39,13.4Z"/><path class="cls-6" d="M1481,5000l127.6-235.68s26-62.81,30.64,0-53,235.68-53,235.68"/><path class="cls-6" d="M2604.45,5000s1.33-16.11-9.36-82.23-10.69-97.54-10.69-97.54,29.88-13.78,42.9,5.37c0,0,9.19-6.37,21.44,174.4"/><path d="M2441.17,1502.49s-320.3-70.85-477.32,334c-139.35,359.23-278.68,1488.9-687.7,1817.24,0,0,80.46-259.57,85-359,0,0-183.09,234.88-222.92,290,0,0,116.42-228.76,124.74-361.53l-49.52,85.26a527.67,527.67,0,0,1-77.09,102l-88.62,91.6s84.36-118.72,104.91-255.83c0,0-9.43,65.64-239.61,258.13,0,0,88.21-184.46,190.43-380.41A1385.56,1385.56,0,0,0,1179.63,2950c26.24-73.32,64.13-177.77,96.52-261.45,105.7-273.05,58.25-255.65,114.89-438.12,89.75-289.16,99.58-585.8,283.41-739.92,0,0,226.12-268.36,699.48-309.72,0,0,259.17-44.82,352.82,150,0,0,122.21-189.57,317.31-106.85,156.93,66.53,310.79,97.68,407.19,526.68,3.16,14-10.62,64.8-12,80-3.69,39.57-1.92,84.29,8.43,106.47,8,17.23,23.06,41.24,29.87,54.38,4.52,8.73,10.12,14.79,10.88,29.86,4.85,96.51-.71,174.47-5.06,284.56-.2,5-61.07-28.37-71.69-33.32-12.85-6-37.63-12.17-41.71-14.79-19.71-12.67-27.43-31.79-23.79-52.69,8.82-50.47,32.56-34.39,37.16-48.18,9-26.92,52.34-71.23,56.93-137.87,2.23-32.28-16.41-78.76-32.43-131.42-75.9-249.35-182.55-433.62-439.27-385.6-17.2,3.22-21,25-46,28.72-121.78,18.39-191.61,5.51-433.14-25.27C2472.4,1523.3,2459.42,1505,2441.17,1502.49Z"/><path d="M2441.17,1502.49c-107.14-17.87-220.34,15.47-304.59,83.09-31.75,25.27-60,55.12-84.25,87.61-74.11,98-110.33,217.31-142,334.36-42,157-77.44,315.67-116.66,473.38-68.17,272.23-140.29,545.64-256.7,801.88-15.37,33.09-32.43,67.91-49.9,100-35.34,65.42-75.6,129-123.59,185.92-26.62,31.56-57.07,62.17-89.35,88l1-3.39c26.66-88.36,51.83-177.34,71-267.65,6.12-30.05,12-60.42,13.73-91.06l2.35.88c-74.6,96.41-150,192.25-222.7,290.12l-2.65-1.61c21.41-42.95,41-86.82,59.24-131.22,19.52-48.11,37.37-97.13,50.59-147.37,6.88-27,12.64-54.57,14.5-82.35l3.36,1c-18,30.41-58.08,103.51-80.39,132.61-8.78,11.93-18,23.54-27.74,34.69-32.43,36-74.67,77.76-107.19,112l-3.12-2.6c6.54-9.45,12.71-19.3,18.65-29.21,29.56-49.69,54-102.71,70.52-158.16a502.23,502.23,0,0,0,15.24-67.6l4.3.63-.17.85c-.06.27-.13.48-.2.73l-.41,1.43c-.6,1.84-1.26,3.62-2,5.39-4.79,11.09-11.35,21.64-18.15,31.59-13.93,20.23-26,34.32-41.56,52.28-34.6,38.59-72.12,74.57-110.69,109.15l-16.6,14.75-8.3,7.37c-2.76,2.47-5.62,4.82-8.42,7.24l-33.78,28.81-8.3,7.08,4.73-9.85q94.72-197,195.81-391.07,22.86-44.86,42.53-91.29c33.81-81.67,62-169.74,93.72-252.13C1281.7,2664,1327,2560.38,1347,2449.92c6-33,9.43-66.69,16-99.67,5.18-27.11,12.3-55.39,20.19-81.84,42.4-133.72,68.08-271.78,103.31-407.43,34.19-128.75,81.21-264.06,186.52-352.19,42.44-47,96.12-89.06,149.9-124.89,56-37.11,116.09-68.5,177.93-94.74,10.45-4.16,23.57-9.64,34.08-13.63l5.73-2.12,23-8.46c13.09-4.44,33.34-11.37,46.49-15.21,85.63-26.32,174.53-42.88,263.69-50.78,111.28-15,243.84,6.07,319.63,97a245.93,245.93,0,0,1,22.48,31.53c4.54,7.32,8.47,15,12.3,22.7l-2.77-.17a310.29,310.29,0,0,1,33.74-40.87c79.75-82,182.34-112.45,289.82-64.54,66.82,27.72,136.3,53.11,192.82,99.65l2.6,2,2.51,2.16,10,8.65c.85.71,1.65,1.47,2.44,2.23l2.4,2.28,4.8,4.55,4.79,4.57c4.44,4.59,9.33,9.71,13.68,14.36,54.8,60.7,90.53,135.86,118.18,212.14,6.76,19.22,14.48,43.1,20.43,62.74,2.51,9.07,6.47,22.62,9,31.74,6.94,25.65,14,54.25,19.74,80.13.94,12.18-2,24.32-4.09,36.21-1.69,8.64-3.54,17.24-5.3,25.85-3.88,17.14-4.45,34.76-4.68,52.27,0,18.58.89,37.35,5,55.5a87,87,0,0,0,8.06,21.36c10.14,19.42,21.6,38.26,32.07,57.58a45.68,45.68,0,0,1,4.63,12.52,78.92,78.92,0,0,1,1.23,13.22c.8,21.86,1.68,44.1,1.6,65.94.41,69.87-4.43,142.57-7,212.54l0,.82c0,.1-.06,1-.61,1.15-1.27.4-2.39-.12-3.6-.41-14.5-5.24-28-12.86-41.78-19.75-7.81-4-15.59-8.15-23.41-12.12s-16.23-6.62-24.56-9.33c-4.19-1.34-8.39-2.63-12.57-4-3.13-1.08-6.43-2-9.12-4-17.49-11.45-26.24-31.1-22.53-51.66a94,94,0,0,1,6.29-22.24c3.45-8.16,9.83-15.38,18.41-18.2,4-1.56,8.65-2.25,11.34-5.82,1.74-2.76,2.34-6.11,3.91-9,4.25-9,9.62-17.33,14.72-25.79,18.53-29.67,34.76-61.83,38.75-97a103.72,103.72,0,0,0,.21-26.23c-2.1-17.45-6.95-34.43-12-51.22-7.54-24.19-16.42-51-23.79-75.46-23.69-75.32-51.1-150.3-92.26-218-75.69-124.81-181.47-179.92-327.23-157-1.7.25-4.84.73-6.51,1-4.37.91-8.89,1.18-12.87,2.7-8.34,3.34-13.51,11-20,16.8-11.75,10.94-21.88,10.65-36.57,12.8-52.25,7.42-105.34,7.9-157.89,3.69-78.77-6.48-157.29-18-235.71-27.84-4.45-.61-15.3-1.93-19.62-2.52-2-.32-4.61-.49-6.53-.9-17.52-3.39-29.21-20.28-47.08-22.77Zm0,0c17.87,2.49,29.56,19.37,47.08,22.75,1.08.23,2.17.35,3.26.49l3.27.42c4.79.58,14.84,1.92,19.62,2.51,78.43,9.8,156.95,21.32,235.72,27.77,52.54,4.2,105.63,3.7,157.86-3.73l13.06-1.81a40.66,40.66,0,0,0,12.62-3.54c8.08-3.66,14-10.57,20.17-16.72,3.13-3.06,6.6-5.93,10.74-7.53a29.51,29.51,0,0,1,6.4-1.58l6.5-1.13,3.25-.56,3.26-.49c145.56-22.93,251.61,32,327.53,157,41.23,67.71,68.71,142.7,92.47,218,7.36,24.43,16.31,51.19,23.85,75.44,5.1,16.82,10,33.82,12.09,51.32a104,104,0,0,1-.19,26.38c-3.07,26.31-12.75,51.43-25.46,74.52-8.3,15.5-18.38,30-26.53,45.57a87.49,87.49,0,0,0-4.54,10.58c-1.17,2.65-3.76,4.39-6.33,5.37-2.07.81-4.18,1.44-6.23,2.21-8.51,2.79-14.49,9.77-18,17.8a92.56,92.56,0,0,0-6.2,22.06c-3.69,20.31,5.09,39.56,22.23,50.79l1.35.93a44.32,44.32,0,0,0,7.55,3c4.17,1.37,8.38,2.66,12.57,4,8.37,2.72,16.84,5.33,24.7,9.35s15.63,8.09,23.45,12.1,15.64,8,23.55,11.84c4,1.9,7.93,3.77,12,5.48,2.77,1.1,5.48,2.39,8.41,2.82a1.32,1.32,0,0,0,.55,0l.11-2.71c2-51.16,4.88-107.24,6.12-158.11,1-39.49.77-79.14-1.12-118.61a77.7,77.7,0,0,0-1.23-13c-1.25-6.45-4.39-12.24-7.75-17.84-10.7-20.42-23.71-39.72-33.13-60.87a85.42,85.42,0,0,1-4-12.67c-4.22-18.31-5.16-37.17-5.16-55.88a347,347,0,0,1,2.24-39.6c2.15-13,5.21-25.88,7.66-38.84,2-10.75,4.21-21.53,4.27-32.45a25.32,25.32,0,0,0-.9-6.33c-3-12.33-6.12-26.2-9.12-38.48-3.78-14.48-9.37-36.67-13.62-50.92-6.75-24.28-15.42-51.64-23.76-75.39-4.11-11.91-9.27-25.29-13.78-37-27.71-69-63.16-136.39-115.43-190-3.95-4.36-9.86-9.73-14.09-13.79s-12.76-11.22-17.27-15.2l-2.58-2-5.17-4.06c-55.4-44-122.55-68.16-187.18-95a322.47,322.47,0,0,0-30.74-11.5c-96-30.7-188,5.15-255.79,75.72-12.72,13.22-24.75,27.41-34.84,42.72a273,273,0,0,0-23.94-40.87,237.5,237.5,0,0,0-15.88-19.93c-75.59-85.68-204.28-105.32-312.63-90.53-88.91,8-177.5,24.6-262.82,51-13.06,3.7-33.27,10.9-46.31,15.21-6.53,2.38-25.21,9.36-31.44,11.64l-31.07,12.56-5.58,2.45-22.33,9.76c-51.7,23.63-101.85,50.88-149.24,82.29-53.89,36.12-105.79,76.54-149.41,124.72-104.49,87.65-150.77,222-184.78,349.94-34.06,130.15-58.28,262.92-98.48,391.49-2.3,8.49-7.2,23.56-9.43,32.21l-4.28,16.22-2.14,8.11c-.68,2.71-1.27,5.44-1.91,8.17l-3.77,16.33c-3.41,16.35-6.49,33-9,49.5-6.37,44.35-12.85,89.11-25.07,132.37-17.6,65.11-41.42,128.21-65.6,191s-47.22,126-70.12,189.21c-12.17,34.37-32.88,92.21-47.53,126q-19.65,46.58-42.7,91.61-100.92,193.82-195.95,390.86l-3.57-2.77c9.07-7.74,34.39-29.21,42.16-36,41.56-36.56,82.6-74,120.33-114.45,21.66-23.29,43.4-48.35,60.82-75a208.53,208.53,0,0,0,10.91-19c1.84-4,3.74-8,4.73-12.29l4.3.63c-14.76,92.14-53.93,179.34-105.4,256.69l-3.12-2.59c31.55-33.13,77.83-79.06,107.21-111.72a524.36,524.36,0,0,0,40.25-52.46c17.58-26.16,54.7-92.44,71.52-120.76l-.49,7.66c-2,28.1-7.73,55.79-14.71,83-13.33,50.4-31.29,99.51-50.93,147.74q-18.24,44.49-38.6,88.07c-6.79,14.52-13.69,29-20.92,43.31l-2.64-1.62c73.68-98.93,150.1-195.77,225.72-293.23a427.81,427.81,0,0,1-5.56,50.18c-18.67,106.23-49.11,210-80,313.22l-1.71-1.16c31.11-25.12,60.56-54.79,86.43-85.4,43.64-51.54,80.83-108.81,113.85-167.65,21.29-37.94,41.36-78.13,59.75-117.64,116.7-256,189.23-529.24,257.54-801.37,39.34-157.67,74.86-316.32,117-473.28,31.75-117.06,68-236.43,142.17-334.39,24.29-32.48,52.52-62.33,84.29-87.59,84.27-67.62,197.49-100.93,304.64-83Z"/><path class="cls-22" d="M2371.19,1500s-270.87-108.29-403.38,748c0,0-49.55-700.68,339-798Z"/><path class="cls-22" d="M1831.92,2325.13s-6.76,12.73-23.18,132.13c-5.85,42.57-10.88,155.15-20.13,206.81-39.34,219.67-112.49,506.93-245.91,738.38,0,0,135.88-337.54,232.85-977.43Z"/><path class="cls-23" d="M3093.51,1499s378.4,129.38,270.37,661.72c0,0,126.39-425-132.22-588.61Z"/><path d="M2622.11,3452.83s-14.23,51.77-78.88,85.59c0,0,52.75-51.56,68.15-91.64Z"/><path class="cls-2" d="M2523.29,3382.53s2.46,33.61-63.66,80.81c0,0,42.54-33.44,53-80.71Z"/><path d="M2432.37,3338.82s-14.5,32.27-70.72,56.81c0,0,39.55-16.72,61.18-61.89Z"/><path d="M2327.6,3294.94c3.88-1.58-17.51,44.38-36.69,65.12,0,0,17.71-30.43,27.84-66.38Z"/><line class="cls-4" x1="2669.16" y1="1966.66" x2="2927.32" y2="1980.44"/><path d="M2243.81,3271.08s-17.73,13.25-17,77.24c0,0-9.1-42.14,4.15-81.45Z"/><path class="cls-2" d="M2145.26,3238.69s-23.88,24-16.42,84.1c0,0-13.2-29.11,6-89.12Z"/><path class="cls-2" d="M2057.43,3218.23s3.06,32.17-36,57.58c0,0,29.22-24.06,29.22-59.53Z"/><path d="M1991,3192.57s-32.68,37.79-41.87,44.94l36.77-50Z"/><path d="M1927.87,3146.27s-15.23,34.06-53.07,50.74c0,0,23.1-5.17,45.7-58.07Z"/><path class="cls-2" d="M1853.91,3087.05s-13.11,17.06-22,65.31c0,0,2.65-37.15,16-70.47Z"/><path d="M1803.13,3042.83s-22.6,18.38-24.13,61.66c0,0-2.3-45.58,19.91-67.79Z"/><path class="cls-2" d="M1755.64,2993.94s-13,3.83-17.62,62.29c0,0-.34-51.83,14.17-66.63Z"/><path class="cls-2" d="M4014.7,3372.32s37.79,7.15,113.87,129.7c0,0-16.56-31.74-38.8-66.13-19.79-30.59-43.33-63.08-75.07-79.91Z"/><path class="cls-2" d="M4005,3596s68.94,43.4,103.15,97c0,0-30.13-59.23-99.58-108.26Z"/><path class="cls-24" d="M1425.51,3980.74,1324.4,5000l1472.94,2L2769,4373.68S2328.06,4491.37,1425.51,3980.74Z"/><path class="cls-25" d="M1354.28,3893.11s853.27,594.38,1443.06,441.19L2779.47,4394S2285.68,4562.55,1365,3957.45Z"/><path class="cls-26" d="M1793.17,5002c55.15-350.27-23-481.25-23-481.25-201.66-209.1-371.49-746-371.49-746s-10.72-27.57-59.74,91.92c0,0,6.13,9.19-41.36,19.91s-85.79,12.26-127.15,91.92-166.16,579.59-209.88,769c-23,99.57-55.14,104.17-55.14,104.17s-23.37-.38-23.37,148.36Z"/><path class="cls-7" d="M1339.33,3872.75s31.12,91.91,8.14,218.29l125.15-19.53s-18.87,85.32-67.13,112.9c0,0,276.23,269.7,364.7,336.33"/><polyline class="cls-7" points="1227.93 5000 1358.71 4422.7 1338.81 4385.98 1358.71 4422.7 1390.53 4391.68"/><path class="cls-27" d="M1399,3772.92l13.24,3.2-7.67,11.88-3.51-7.54c-.33-.79-.68-1.91-1.08-2.67l-1.18-3.6Z"/><path class="cls-26" d="M2824.91,4318.53l-1.17-56.86a54.16,54.16,0,0,0-10.81-31.39l-1-1.37s-227.5,282.64-512.43,409.79c0,0-72.51,116.43-75.71,363.29l814.86-2-9.18-157.22a1105.54,1105.54,0,0,0-33-209.58l-58.17-225.82S2930.62,4354.53,2824.91,4318.53Z"/><path class="cls-7" d="M2824.91,4318.53s-43.44,48.37-45.44,142.47l-83.24-38.3s-22.34,69.46,5.23,111.59l-402,104.41"/><path class="cls-7" d="M2789.68,5002s-3-277.12-20.3-361.37l-25.89-20.78,25.89,20.78,19.15-28.34"/><path class="cls-28" d="M2679,2005.89s7.61-174-351.64-191.74-224.08,318.63,35.51,339.37C2362.86,2153.52,2652.09,2197.64,2679,2005.89Z"/><path class="cls-28" d="M2906.53,2035s2.52-166.14,322.44-165.23,182,314.75-49.63,321.62C3179.34,2191.38,2920.18,2219,2906.53,2035Z"/><line class="cls-4" x1="2125.68" y1="1878.38" x2="1911.13" y2="1813.47"/><line class="cls-7" x1="3404.93" y1="1942.5" x2="3428.57" y2="1932.31"/><rect class="cls-29" width="5000" height="5000"/></svg>